<svg xmlns="http://www.w3.org/2000/svg" xmlns:xlink="http://www.w3.org/1999/xlink" width="85" height="85" viewBox="0 0 85 85">
  <defs>
    <filter id="Elipse_20" x="0" y="0" width="85" height="85" filterUnits="userSpaceOnUse">
      <feOffset dy="3" input="SourceAlpha"/>
      <feGaussianBlur stdDeviation="3" result="blur"/>
      <feFlood flood-opacity="0.161"/>
      <feComposite operator="in" in2="blur"/>
      <feComposite in="SourceGraphic"/>
    </filter>
  </defs>
  <g id="linkedin" transform="translate(-1424 -8103)">
    <g transform="matrix(1, 0, 0, 1, 1424, 8103)" filter="url(#Elipse_20)">
      <circle id="Elipse_20-2" data-name="Elipse 20" cx="33.5" cy="33.5" r="33.5" transform="translate(9 6)" fill="#fff"/>
    </g>
    <path id="Icon_awesome-linkedin-in" data-name="Icon awesome-linkedin-in" d="M6.083,27.174H.449V9.032H6.083ZM3.263,6.557A3.278,3.278,0,1,1,6.525,3.263,3.29,3.29,0,0,1,3.263,6.557Zm23.9,20.617H21.546V18.342c0-2.1-.042-4.8-2.929-4.8-2.929,0-3.378,2.287-3.378,4.652v8.983H9.611V9.032h5.4v2.475h.079a5.92,5.92,0,0,1,5.33-2.93c5.7,0,6.75,3.755,6.75,8.631v9.966Z" transform="translate(1452.913 8126.835)" fill="#003e96"/>
  </g>
</svg>
