<svg xmlns="http://www.w3.org/2000/svg" xmlns:xlink="http://www.w3.org/1999/xlink" width="85" height="85" viewBox="0 0 85 85">
  <defs>
    <filter id="Elipse_19" x="0" y="0" width="85" height="85" filterUnits="userSpaceOnUse">
      <feOffset dy="3" input="SourceAlpha"/>
      <feGaussianBlur stdDeviation="3" result="blur"/>
      <feFlood flood-opacity="0.161"/>
      <feComposite operator="in" in2="blur"/>
      <feComposite in="SourceGraphic"/>
    </filter>
  </defs>
  <g id="instagram" transform="translate(-1324 -8103)">
    <g transform="matrix(1, 0, 0, 1, 1324, 8103)" filter="url(#Elipse_19)">
      <circle id="Elipse_19-2" data-name="Elipse 19" cx="33.5" cy="33.5" r="33.5" transform="translate(9 6)" fill="#fff"/>
    </g>
    <path id="Icon_awesome-instagram" data-name="Icon awesome-instagram" d="M15.665,9.869A8.032,8.032,0,1,0,23.7,17.9,8.019,8.019,0,0,0,15.665,9.869Zm0,13.253A5.222,5.222,0,1,1,20.887,17.9a5.231,5.231,0,0,1-5.222,5.222ZM25.9,9.541a1.873,1.873,0,1,1-1.873-1.873A1.869,1.869,0,0,1,25.9,9.541Zm5.32,1.9a9.271,9.271,0,0,0-2.53-6.564,9.332,9.332,0,0,0-6.564-2.53C19.538,2.2,11.786,2.2,9.2,2.348A9.318,9.318,0,0,0,2.635,4.871,9.3,9.3,0,0,0,.1,11.435C-.042,14.021-.042,21.774.1,24.36a9.271,9.271,0,0,0,2.53,6.564A9.344,9.344,0,0,0,9.2,33.454c2.586.147,10.339.147,12.925,0a9.271,9.271,0,0,0,6.564-2.53,9.332,9.332,0,0,0,2.53-6.564c.147-2.586.147-10.332,0-12.918ZM27.877,27.135A5.287,5.287,0,0,1,24.9,30.113c-2.062.818-6.955.629-9.234.629s-7.179.182-9.234-.629a5.287,5.287,0,0,1-2.978-2.978c-.818-2.062-.629-6.955-.629-9.234s-.182-7.179.629-9.234A5.287,5.287,0,0,1,6.431,5.689c2.062-.818,6.955-.629,9.234-.629s7.179-.182,9.234.629a5.287,5.287,0,0,1,2.978,2.978c.818,2.062.629,6.955.629,9.234S28.695,25.08,27.877,27.135Z" transform="translate(1350.838 8124.599)" fill="#003e96"/>
  </g>
</svg>
