<svg id="logo_caoa-consorcio_branco" xmlns="http://www.w3.org/2000/svg" width="183.317" height="86.689" viewBox="0 0 183.317 86.689">
  <path id="Caminho_32" data-name="Caminho 32" d="M-145.97,494.187a65.206,65.206,0,0,1,10.508.876l.919-7.99a52.989,52.989,0,0,0-13.332-1.555c-16.922,0-21.125,7.9-21.125,26.029,0,18.1,4.181,26.028,21.125,26.028a53.261,53.261,0,0,0,13.332-1.532l-.941-8.012a64.771,64.771,0,0,1-10.486.875c-12.3,0-12.478-7.29-12.478-17.359,0-10.027.219-17.36,12.478-17.36" transform="translate(169 -485.518)" fill="#fff" style="mix-blend-mode: normal;isolation: isolate"/>
  <path id="Caminho_33" data-name="Caminho 33" d="M36.292,492.633c-1.642-4.86-4.509-7.115-8.318-7.115-3.918,0-6.677,2.123-8.384,7.115L4.419,537.05H15.1l12.434-41.2,5.913,19.22H43.823Z" transform="translate(35.937 -485.518)" fill="#fff" style="mix-blend-mode: normal;isolation: isolate"/>
  <path id="Caminho_34" data-name="Caminho 34" d="M244.433,485.518c-15.871,0-20.4,7.552-20.4,26.029s4.532,26.028,20.4,26.028c15.849,0,20.381-7.552,20.381-26.028s-4.531-26.029-20.381-26.029m0,43.52c-9.676,0-9.9-7.093-9.9-17.491s.219-17.513,9.9-17.513c9.654,0,9.873,7.114,9.873,17.513s-.219,17.491-9.873,17.491" transform="translate(-132.568 -485.518)" fill="#fff" style="mix-blend-mode: normal;isolation: isolate"/>
  <path id="Caminho_35" data-name="Caminho 35" d="M449.553,492.633c-1.642-4.86-4.51-7.115-8.319-7.115-3.918,0-6.677,2.123-8.384,7.115L417.679,537.05h10.683l12.435-41.2,5.913,19.22h10.374Z" transform="translate(-281.153 -485.518)" fill="#fff" style="mix-blend-mode: normal;isolation: isolate"/>
  <path id="Caminho_36" data-name="Caminho 36" d="M143.7,659.739l3.381,10.989h10.99l-3.689-10.989Z" transform="translate(-70.928 -619.196)" fill="#34ba8a" style="mix-blend-mode: normal;isolation: isolate"/>
  <path id="Caminho_37" data-name="Caminho 37" d="M556.957,659.739l3.381,10.989h10.99l-3.689-10.989Z" transform="translate(-388.02 -619.196)" fill="#34ba8a" style="mix-blend-mode: normal;isolation: isolate"/>
  <path id="Caminho_38" data-name="Caminho 38" d="M20.449,802.984a19.8,19.8,0,0,1-4.218.471c-5.431,0-6.435-3.82-6.435-8.454,0-5.276,1.195-8.1,7.015-8.1a13.705,13.705,0,0,1,3.612.461l-.181,1.684a17.112,17.112,0,0,0-2.688-.271c-5.041,0-5.53,1.765-5.53,6.227,0,4.191.371,6.553,5.5,6.553a14.96,14.96,0,0,0,2.715-.344Z" transform="translate(31.812 -716.766)" fill="#34ba8a" style="mix-blend-mode: normal;isolation: isolate"/>
  <path id="Caminho_39" data-name="Caminho 39" d="M67.2,795.172c0-6.028,1.883-8.273,7.078-8.273s7.078,2.326,7.078,8.273c0,5.919-1.873,8.282-7.078,8.282s-7.078-2.245-7.078-8.282m11.948,0c0-4.9-1.158-6.417-4.869-6.417-3.63,0-4.86,1.3-4.86,6.417s1.231,6.426,4.86,6.426c3.684,0,4.869-1.521,4.869-6.426" transform="translate(-12.238 -716.765)" fill="#34ba8a" style="mix-blend-mode: normal;isolation: isolate"/>
  <path id="Caminho_40" data-name="Caminho 40" d="M148.543,803.236h-2.19V791c0-.941.027-1.865.081-2.751a18.7,18.7,0,0,1,7.277-1.349c5.494,0,6.055,2.6,6.055,5.865v10.472h-2.2V793.162c0-3.041-.543-4.417-4.589-4.417a13.106,13.106,0,0,0-4.372.788c-.045.761-.063,1.765-.063,2.525Z" transform="translate(-72.967 -716.765)" fill="#34ba8a" style="mix-blend-mode: normal;isolation: isolate"/>
  <path id="Caminho_41" data-name="Caminho 41" d="M223.077,791.009c0,2.154,1.656,2.39,3.973,3.1,3.24,1,5.069,1.828,5.069,4.806,0,3.557-2.643,4.535-6.155,4.535a23.954,23.954,0,0,1-5.132-.534l.217-1.729a26.533,26.533,0,0,0,4.146.38c1.892,0,4.679,0,4.679-2.526,0-2.046-1.43-2.408-3.946-3.159-2.534-.76-5.051-1.358-5.051-4.67,0-3.367,2.326-4.317,5.576-4.317a24.326,24.326,0,0,1,5.249.534l-.217,1.7a23.528,23.528,0,0,0-4.037-.389c-1.846,0-4.371.045-4.371,2.263" transform="translate(-130.114 -716.766)" fill="#34ba8a" style="mix-blend-mode: normal;isolation: isolate"/>
  <path id="Caminho_42" data-name="Caminho 42" d="M283.527,773.685c0-6.028,1.874-8.273,7.078-8.273s7.078,2.326,7.078,8.273c0,5.92-1.883,8.282-7.078,8.282s-7.078-2.245-7.078-8.282m11.948,0c0-4.9-1.158-6.417-4.87-6.417-3.639,0-4.86,1.3-4.86,6.417s1.222,6.426,4.86,6.426c3.684,0,4.87-1.521,4.87-6.426M291.8,758.9h2.652l-3.53,4.327h-1.783Z" transform="translate(-178.22 -695.278)" fill="#34ba8a" style="mix-blend-mode: normal;isolation: isolate"/>
  <path id="Caminho_43" data-name="Caminho 43" d="M362.637,803.236V790.945c0-.941.027-1.865.091-2.752a13.391,13.391,0,0,1,6.046-1.294,13.189,13.189,0,0,1,1.5.072l-.181,1.864a11.825,11.825,0,0,0-1.321-.063,10.18,10.18,0,0,0-3.883.733c-.046.76-.064,1.774-.064,2.534v11.2Z" transform="translate(-238.92 -716.765)" fill="#34ba8a" style="mix-blend-mode: normal;isolation: isolate"/>
  <path id="Caminho_44" data-name="Caminho 44" d="M416.733,802.984a19.805,19.805,0,0,1-4.218.471c-5.431,0-6.436-3.82-6.436-8.454,0-5.276,1.2-8.1,7.014-8.1a13.7,13.7,0,0,1,3.612.461l-.181,1.684a17.113,17.113,0,0,0-2.689-.271c-5.041,0-5.53,1.765-5.53,6.227,0,4.191.371,6.553,5.5,6.553a14.962,14.962,0,0,0,2.715-.344Z" transform="translate(-272.253 -716.766)" fill="#34ba8a" style="mix-blend-mode: normal;isolation: isolate"/>
  <path id="Caminho_45" data-name="Caminho 45" d="M466.131,761.751c0-1.186.3-1.611,1.321-1.611s1.331.426,1.331,1.611-.281,1.593-1.331,1.593-1.321-.408-1.321-1.593m.227,4.833h2.2V782.7h-2.2Z" transform="translate(-318.33 -696.233)" fill="#34ba8a" style="mix-blend-mode: normal;isolation: isolate"/>
  <path id="Caminho_46" data-name="Caminho 46" d="M494.521,795.172c0-6.028,1.883-8.273,7.078-8.273s7.078,2.326,7.078,8.273c0,5.919-1.874,8.282-7.078,8.282s-7.078-2.245-7.078-8.282m11.948,0c0-4.9-1.158-6.417-4.87-6.417-3.63,0-4.861,1.3-4.861,6.417s1.231,6.426,4.861,6.426c3.684,0,4.87-1.521,4.87-6.426" transform="translate(-340.113 -716.765)" fill="#34ba8a" style="mix-blend-mode: normal;isolation: isolate"/>
  <path id="Caminho_47" data-name="Caminho 47" d="M572.492,791.009c0,2.154,1.656,2.39,3.973,3.1,3.241,1,5.069,1.828,5.069,4.806,0,3.557-2.643,4.535-6.155,4.535a23.955,23.955,0,0,1-5.132-.534l.217-1.729a26.543,26.543,0,0,0,4.146.38c1.892,0,4.68,0,4.68-2.526,0-2.046-1.431-2.408-3.947-3.159-2.534-.76-5.05-1.358-5.05-4.67,0-3.367,2.326-4.317,5.576-4.317a24.319,24.319,0,0,1,5.249.534l-.217,1.7a23.517,23.517,0,0,0-4.036-.389c-1.847,0-4.372.045-4.372,2.263" transform="translate(-398.217 -716.766)" fill="#34ba8a" style="mix-blend-mode: normal;isolation: isolate"/>
</svg>
