<svg xmlns="http://www.w3.org/2000/svg" width="458.827" height="331.564" viewBox="0 0 458.827 331.564">
  <g id="Grupo_322" data-name="Grupo 322" transform="translate(-745.26 -218.926)">
    <g id="Grupo_257" data-name="Grupo 257" transform="translate(843.539 315)" opacity="0.7">
      <g id="Grupo_246" data-name="Grupo 246" transform="translate(0 98.16)">
        <path id="Caminho_360" data-name="Caminho 360" d="M1073,704.96c-1.678,7.905-.146,15.531,3.57,20.724,5.505-3.235,10-9.581,11.682-17.486s.146-15.531-3.57-20.724C1079.174,690.709,1074.675,697.055,1073,704.96Z" transform="translate(-1007.615 -648.216)" fill="#d8dfeb"/>
        <path id="Caminho_361" data-name="Caminho 361" d="M1073,704.96c-1.678,7.905-.146,15.531,3.57,20.724,5.505-3.235,10-9.581,11.682-17.486s.146-15.531-3.57-20.724C1079.174,690.709,1074.675,697.055,1073,704.96Z" transform="translate(-1007.615 -648.216)" fill="#d8dfeb"/>
        <path id="Caminho_362" data-name="Caminho 362" d="M1013.1,696.276c-6.578-2.764-13.445-2.7-18.564-.334,1.895,5.31,6.653,10.262,13.231,13.025s13.445,2.7,18.563.334C1024.436,703.991,1019.677,699.04,1013.1,696.276Z" transform="translate(-968.593 -651.583)" fill="#888e94"/>
        <path id="Caminho_363" data-name="Caminho 363" d="M1013.1,696.276c-6.578-2.764-13.445-2.7-18.564-.334,1.895,5.31,6.653,10.262,13.231,13.025s13.445,2.7,18.563.334C1024.436,703.991,1019.677,699.04,1013.1,696.276Z" transform="translate(-968.593 -651.583)" fill="#d8dfeb"/>
        <path id="Caminho_364" data-name="Caminho 364" d="M1028.9,647.229c.649,6.14,3.566,11.318,7.493,14.213,3.235-3.652,5-9.326,4.354-15.466s-3.566-11.318-7.494-14.213C1030.018,635.415,1028.249,641.089,1028.9,647.229Z" transform="translate(-985.765 -620.268)" fill="#d8dfeb"/>
        <path id="Caminho_365" data-name="Caminho 365" d="M1028.9,647.229c.649,6.14,3.566,11.318,7.493,14.213,3.235-3.652,5-9.326,4.354-15.466s-3.566-11.318-7.494-14.213C1030.018,635.415,1028.249,641.089,1028.9,647.229Z" transform="translate(-985.765 -620.268)" fill="#d8dfeb"/>
        <path id="Caminho_366" data-name="Caminho 366" d="M979.223,655.06c-5.433-.453-10.406,1.219-13.566,4.146,2.632,3.41,7.26,5.883,12.692,6.336s10.406-1.219,13.566-4.147C989.283,657.985,984.655,655.513,979.223,655.06Z" transform="translate(-954.106 -631.918)" fill="#d8dfeb"/>
        <path id="Caminho_367" data-name="Caminho 367" d="M980.346,619.369a13.5,13.5,0,0,0,7.966,7.154A14.44,14.44,0,0,0,979.5,608.7,13.5,13.5,0,0,0,980.346,619.369Z" transform="translate(-960.679 -608.696)" fill="#d8dfeb"/>
        <path id="Caminho_368" data-name="Caminho 368" d="M981.492,622.756a13.5,13.5,0,0,0,7.965,7.155,14.44,14.44,0,0,0-8.815-17.827A13.5,13.5,0,0,0,981.492,622.756Z" transform="translate(-961.254 -610.395)" fill="#d8dfeb"/>
        <path id="Caminho_369" data-name="Caminho 369" d="M950,633.16a11.916,11.916,0,0,0-7.523,5.724A12.749,12.749,0,0,0,959.4,634.19,11.917,11.917,0,0,0,950,633.16Z" transform="translate(-942.477 -620.716)" fill="#d8dfeb"/>
        <path id="Caminho_370" data-name="Caminho 370" d="M950,633.16a11.916,11.916,0,0,0-7.523,5.724A12.749,12.749,0,0,0,959.4,634.19,11.917,11.917,0,0,0,950,633.16Z" transform="translate(-942.477 -620.716)" fill="#d8dfeb"/>
        <path id="Caminho_371" data-name="Caminho 371" d="M1019.243,708.442s-13.437-42.485-34.1-63.241-42.529-27-42.529-27,37,18.99,49.917,40.486,22.344,49.347,22.344,49.347Z" transform="translate(-942.545 -613.467)" fill="#d8dfeb"/>
      </g>
      <g id="Grupo_247" data-name="Grupo 247" transform="translate(303.712 175.973)">
        <path id="Caminho_372" data-name="Caminho 372" d="M1574.915,780.229a13.1,13.1,0,0,1-7.449,7.241,14.01,14.01,0,0,1,7.864-17.621A13.1,13.1,0,0,1,1574.915,780.229Z" transform="translate(-1559.285 -767.354)" fill="#d8dfeb"/>
        <path id="Caminho_373" data-name="Caminho 373" d="M1574.915,780.229a13.1,13.1,0,0,1-7.449,7.241,14.01,14.01,0,0,1,7.864-17.621A13.1,13.1,0,0,1,1574.915,780.229Z" transform="translate(-1559.285 -767.354)" fill="#d8dfeb"/>
        <ellipse id="Elipse_27" data-name="Elipse 27" cx="3.4" cy="8.518" rx="3.4" ry="8.518" transform="translate(17.622 18.796) rotate(-76.755)" fill="#888e94"/>
        <ellipse id="Elipse_28" data-name="Elipse 28" cx="3.4" cy="8.518" rx="3.4" ry="8.518" transform="translate(17.622 18.796) rotate(-76.755)" fill="#d8dfeb"/>
        <path id="Caminho_374" data-name="Caminho 374" d="M1611.3,772.285a10.008,10.008,0,0,1-7.124,3.5,10.706,10.706,0,0,1,9.88-10.943A10.007,10.007,0,0,1,1611.3,772.285Z" transform="translate(-1578.125 -764.842)" fill="#d8dfeb"/>
        <path id="Caminho_375" data-name="Caminho 375" d="M1611.3,772.285a10.008,10.008,0,0,1-7.124,3.5,10.706,10.706,0,0,1,9.88-10.943A10.007,10.007,0,0,1,1611.3,772.285Z" transform="translate(-1578.125 -764.842)" fill="#d8dfeb"/>
        <path id="Caminho_376" data-name="Caminho 376" d="M1628.216,785.778a8.837,8.837,0,0,1,4.214,5.6,9.451,9.451,0,0,1-11.126-6.756A8.834,8.834,0,0,1,1628.216,785.778Z" transform="translate(-1586.736 -774.625)" fill="#d8dfeb"/>
        <path id="Caminho_377" data-name="Caminho 377" d="M1641.518,776.044a6.668,6.668,0,0,1-5.261.543,7.132,7.132,0,0,1,8.7-4.56A6.667,6.667,0,0,1,1641.518,776.044Z" transform="translate(-1594.237 -768.287)" fill="#d8dfeb"/>
        <path id="Caminho_378" data-name="Caminho 378" d="M1640.076,777.064a6.668,6.668,0,0,1-5.261.543,7.133,7.133,0,0,1,8.7-4.56A6.669,6.669,0,0,1,1640.076,777.064Z" transform="translate(-1593.514 -768.799)" fill="#d8dfeb"/>
        <path id="Caminho_379" data-name="Caminho 379" d="M1651.379,786.574a2.514,2.514,0,1,1-4.053-2.319A5.888,5.888,0,0,1,1651.379,786.574Z" transform="translate(-1599.762 -774.581)" fill="#d8dfeb"/>
        <path id="Caminho_380" data-name="Caminho 380" d="M1651.379,786.574a2.514,2.514,0,1,1-4.053-2.319A5.888,5.888,0,0,1,1651.379,786.574Z" transform="translate(-1599.762 -774.581)" fill="#d8dfeb"/>
        <path id="Caminho_381" data-name="Caminho 381" d="M1551.936,798.542s17.714-13.066,32-15.353a53.917,53.917,0,0,1,24.834,1.576s-20.3-3.166-31.706,1.666-23.266,13.219-23.266,13.219Z" transform="translate(-1551.936 -773.683)" fill="#d8dfeb"/>
      </g>
      <g id="Grupo_248" data-name="Grupo 248" transform="translate(250.429 184.73)">
        <path id="Caminho_382" data-name="Caminho 382" d="M1463.783,797.676s19.01-19.414,40.647-14.448,41.8,24.6,41.8,24.6-25.118,14.072-46.582,7.032A148.693,148.693,0,0,1,1463.783,797.676Z" transform="translate(-1454.429 -782.415)" fill="#c7c7c7"/>
        <path id="Caminho_383" data-name="Caminho 383" d="M1445.013,811.341a201.615,201.615,0,0,1,20.372-5.6,104.418,104.418,0,0,1,21.177-2.418,74.858,74.858,0,0,1,21.5,2.988,60.881,60.881,0,0,1,19.9,10.006,60.5,60.5,0,0,0-19.96-9.69,74.1,74.1,0,0,0-21.378-2.647,103.373,103.373,0,0,0-20.97,2.726,200.175,200.175,0,0,0-20.168,5.895Z" transform="translate(-1445.013 -792.901)" fill="#888e94"/>
        <path id="Caminho_384" data-name="Caminho 384" d="M1494.945,798.286a133.472,133.472,0,0,1,19.667-7.992,132.963,132.963,0,0,0-19.349,8.584Z" transform="translate(-1470.062 -786.368)" fill="#888e94"/>
        <path id="Caminho_385" data-name="Caminho 385" d="M1520.055,804.281a61.12,61.12,0,0,1,14.965,14.366,60.462,60.462,0,0,0-15.264-13.816Z" transform="translate(-1482.509 -793.384)" fill="#888e94"/>
        <path id="Caminho_386" data-name="Caminho 386" d="M1541.651,801.827a41.545,41.545,0,0,1,12.884-1.962,40.89,40.89,0,0,0-12.641,2.587Z" transform="translate(-1493.493 -791.169)" fill="#888e94"/>
        <path id="Caminho_387" data-name="Caminho 387" d="M1567.139,808.155a19.209,19.209,0,0,1,9.7,9.682,18.735,18.735,0,0,0-9.885-9.072Z" transform="translate(-1506.188 -795.328)" fill="#888e94"/>
        <path id="Caminho_388" data-name="Caminho 388" d="M1587.617,814.948l7.9,2.157-7.944-1.838Z" transform="translate(-1516.528 -798.736)" fill="#888e94"/>
      </g>
      <g id="Grupo_249" data-name="Grupo 249" transform="translate(264.142 128.039)">
        <path id="Caminho_389" data-name="Caminho 389" d="M1487.853,737.477c.445,6.933-1.805,13.23-5.611,17.186-4.281-3.436-7.32-9.392-7.766-16.325s1.805-13.23,5.611-17.186C1484.368,724.588,1487.407,730.544,1487.853,737.477Z" transform="translate(-1473.478 -694.99)" fill="#d8dfeb"/>
        <path id="Caminho_390" data-name="Caminho 390" d="M1487.853,737.477c.445,6.933-1.805,13.23-5.611,17.186-4.281-3.436-7.32-9.392-7.766-16.325s1.805-13.23,5.611-17.186C1484.368,724.588,1487.407,730.544,1487.853,737.477Z" transform="translate(-1473.478 -694.99)" fill="#d8dfeb"/>
        <path id="Caminho_391" data-name="Caminho 391" d="M1527.055,737.793c5.939-1.534,11.772-.624,15.833,2.022-2.271,4.281-6.934,7.9-12.873,9.437s-11.772.624-15.833-2.022C1516.454,742.948,1521.117,739.327,1527.055,737.793Z" transform="translate(-1493.426 -702.965)" fill="#888e94"/>
        <path id="Caminho_392" data-name="Caminho 392" d="M1527.055,737.793c5.939-1.534,11.772-.624,15.833,2.022-2.271,4.281-6.934,7.9-12.873,9.437s-11.772.624-15.833-2.022C1516.454,742.948,1521.117,739.327,1527.055,737.793Z" transform="translate(-1493.426 -702.965)" fill="#d8dfeb"/>
        <path id="Caminho_393" data-name="Caminho 393" d="M1536.15,694.829a17.412,17.412,0,0,1-8.139,11.16,17.414,17.414,0,0,1-1.783-13.7c1.316-5.143,4.439-9.185,8.14-11.16A17.411,17.411,0,0,1,1536.15,694.829Z" transform="translate(-1499.151 -674.914)" fill="#d8dfeb"/>
        <path id="Caminho_394" data-name="Caminho 394" d="M1536.15,694.829a17.412,17.412,0,0,1-8.139,11.16,17.414,17.414,0,0,1-1.783-13.7c1.316-5.143,4.439-9.185,8.14-11.16A17.411,17.411,0,0,1,1536.15,694.829Z" transform="translate(-1499.151 -674.914)" fill="#d8dfeb"/>
        <path id="Caminho_395" data-name="Caminho 395" d="M1566.821,706.552a15.374,15.374,0,0,1,11.025,5.212,16.447,16.447,0,0,1-22.609-1.4A15.375,15.375,0,0,1,1566.821,706.552Z" transform="translate(-1514.022 -687.648)" fill="#d8dfeb"/>
        <path id="Caminho_396" data-name="Caminho 396" d="M1582.949,677.627a11.6,11.6,0,0,1-7.664,5.1,12.413,12.413,0,0,1,9.713-14.07A11.6,11.6,0,0,1,1582.949,677.627Z" transform="translate(-1523.965 -668.654)" fill="#d8dfeb"/>
        <path id="Caminho_397" data-name="Caminho 397" d="M1581.553,680.366a11.6,11.6,0,0,1-7.664,5.1,12.414,12.414,0,0,1,9.712-14.07A11.6,11.6,0,0,1,1581.553,680.366Z" transform="translate(-1523.265 -670.028)" fill="#d8dfeb"/>
        <path id="Caminho_398" data-name="Caminho 398" d="M1603.006,691.71a10.245,10.245,0,0,1,5.689,5.8,10.96,10.96,0,0,1-13.81-6.094A10.245,10.245,0,0,1,1603.006,691.71Z" transform="translate(-1533.912 -679.721)" fill="#d8dfeb"/>
        <path id="Caminho_399" data-name="Caminho 399" d="M1603.006,691.71a10.245,10.245,0,0,1,5.689,5.8,10.96,10.96,0,0,1-13.81-6.094A10.245,10.245,0,0,1,1603.006,691.71Z" transform="translate(-1533.912 -679.721)" fill="#d8dfeb"/>
        <path id="Caminho_400" data-name="Caminho 400" d="M1472.531,748.66s16.707-34.471,36.863-49.562,39.53-17.682,39.53-17.682-33.831,11.559-47.49,28.24-25.136,39.2-25.136,39.2Z" transform="translate(-1472.531 -675.057)" fill="#d8dfeb"/>
      </g>
      <g id="Grupo_250" data-name="Grupo 250" transform="translate(279.861 30.306)">
        <path id="Caminho_401" data-name="Caminho 401" d="M1527.188,487.726a12.022,12.022,0,0,0-7.554-5.819,12.86,12.86,0,0,0,9.025,15.241A12.022,12.022,0,0,0,1527.188,487.726Z" transform="translate(-1511.674 -477.236)" fill="#d8dfeb"/>
        <path id="Caminho_402" data-name="Caminho 402" d="M1527.188,487.726a12.022,12.022,0,0,0-7.554-5.819,12.86,12.86,0,0,0,9.025,15.241A12.022,12.022,0,0,0,1527.188,487.726Z" transform="translate(-1511.674 -477.236)" fill="#d8dfeb"/>
        <path id="Caminho_403" data-name="Caminho 403" d="M1548.138,482.151a10.613,10.613,0,0,0,6.3-5.588,11.355,11.355,0,0,0-14.712,5.3A10.614,10.614,0,0,0,1548.138,482.151Z" transform="translate(-1521.958 -474.048)" fill="#888e94"/>
        <path id="Caminho_404" data-name="Caminho 404" d="M1548.138,482.151a10.613,10.613,0,0,0,6.3-5.588,11.355,11.355,0,0,0-14.712,5.3A10.614,10.614,0,0,0,1548.138,482.151Z" transform="translate(-1521.958 -474.048)" fill="#d8dfeb"/>
        <path id="Caminho_405" data-name="Caminho 405" d="M1561.542,497.321a9.186,9.186,0,0,0-6.865-2.442,9.826,9.826,0,0,0,10.16,8.939A9.185,9.185,0,0,0,1561.542,497.321Z" transform="translate(-1529.46 -483.723)" fill="#d8dfeb"/>
        <path id="Caminho_406" data-name="Caminho 406" d="M1561.542,497.321a9.186,9.186,0,0,0-6.865-2.442,9.826,9.826,0,0,0,10.16,8.939A9.185,9.185,0,0,0,1561.542,497.321Z" transform="translate(-1529.46 -483.723)" fill="#d8dfeb"/>
        <path id="Caminho_407" data-name="Caminho 407" d="M1576.648,485.6a8.112,8.112,0,0,0,3.255-5.549,8.675,8.675,0,0,0-9.435,7.331A8.109,8.109,0,0,0,1576.648,485.6Z" transform="translate(-1537.381 -476.262)" fill="#d8dfeb"/>
        <path id="Caminho_408" data-name="Caminho 408" d="M1589.316,495.8a6.12,6.12,0,0,0-4.855.058,6.548,6.548,0,0,0,8.415,3.243A6.12,6.12,0,0,0,1589.316,495.8Z" transform="translate(-1544.401 -483.968)" fill="#d8dfeb"/>
        <path id="Caminho_409" data-name="Caminho 409" d="M1587.893,495.018a6.119,6.119,0,0,0-4.855.058,6.548,6.548,0,0,0,8.415,3.243A6.118,6.118,0,0,0,1587.893,495.018Z" transform="translate(-1543.687 -483.577)" fill="#d8dfeb"/>
        <path id="Caminho_410" data-name="Caminho 410" d="M1597.61,483.354a2.308,2.308,0,1,0-3.452,2.541A5.4,5.4,0,0,0,1597.61,483.354Z" transform="translate(-1549.187 -475.845)" fill="#d8dfeb"/>
        <path id="Caminho_411" data-name="Caminho 411" d="M1597.61,483.354a2.308,2.308,0,1,0-3.452,2.541A5.4,5.4,0,0,0,1597.61,483.354Z" transform="translate(-1549.187 -475.845)" fill="#d8dfeb"/>
        <path id="Caminho_412" data-name="Caminho 412" d="M1504.073,473.74s17.528,10.052,30.8,10.633a49.493,49.493,0,0,0,22.48-4.049s-18.177,5.022-29.087,1.815-22.607-9.607-22.607-9.607Z" transform="translate(-1504.073 -472.533)" fill="#d8dfeb"/>
      </g>
      <g id="Grupo_251" data-name="Grupo 251" transform="translate(257.261 164.048)">
        <path id="Caminho_413" data-name="Caminho 413" d="M1510.649,747.234c12-3.017,24.511-3.529,36.568-6.322-8.907,7.75-17.884,15.551-28.1,21.471-9.446,5.475-20.151,9.341-31.171,9.405-4,.023-11.68-1.352-7.232-6.414a59.092,59.092,0,0,1,11.882-10.6A60.251,60.251,0,0,1,1510.649,747.234Z" transform="translate(-1469.081 -740.912)" fill="#d8dfeb"/>
        <path id="Caminho_414" data-name="Caminho 414" d="M1458.722,787.651a68.2,68.2,0,0,1,12.39-11.069,79.173,79.173,0,0,1,14.544-7.966,127.735,127.735,0,0,1,15.683-5.321c5.32-1.474,10.691-2.735,16.062-3.993-5.351,1.337-10.7,2.68-15.994,4.232a127.331,127.331,0,0,0-15.554,5.538,78.505,78.505,0,0,0-14.31,8.118,67.293,67.293,0,0,0-12.065,11.106Z" transform="translate(-1458.722 -750.138)" fill="#888e94"/>
      </g>
      <g id="Grupo_252" data-name="Grupo 252" transform="translate(272.7 0)">
        <path id="Caminho_415" data-name="Caminho 415" d="M1536.213,422.411c11.55-4.445,23.906-6.463,35.536-10.693-7.906,8.769-15.874,17.6-25.3,24.708-8.716,6.576-18.876,11.707-29.807,13.1-3.968.506-11.758.068-7.953-5.493a59.073,59.073,0,0,1,10.514-11.958A60.252,60.252,0,0,1,1536.213,422.411Z" transform="translate(-1498.717 -411.718)" fill="#d8dfeb"/>
        <path id="Caminho_416" data-name="Caminho 416" d="M1489.7,469.918a68.191,68.191,0,0,1,10.962-12.485,79.164,79.164,0,0,1,13.476-9.664,127.6,127.6,0,0,1,14.925-7.176c5.1-2.106,10.282-4.007,15.462-5.9-5.15,1.974-10.3,3.953-15.364,6.132a127.382,127.382,0,0,0-14.772,7.376,78.515,78.515,0,0,0-13.224,9.787,67.281,67.281,0,0,0-10.635,12.482Z" transform="translate(-1489.703 -423.242)" fill="#888e94"/>
      </g>
      <g id="Grupo_253" data-name="Grupo 253" transform="translate(11.171 152.265)">
        <path id="Caminho_417" data-name="Caminho 417" d="M1005.215,725.34c-13.14-3.66-27.1-4.652-40.321-8.073,9.2,8.622,18.477,17.3,29.326,24.008,10.033,6.2,21.636,10.726,33.969,11.185,4.477.167,13.215-1.035,8.738-6.617a59.72,59.72,0,0,0-12.249-11.783A64.878,64.878,0,0,0,1005.215,725.34Z" transform="translate(-964.894 -717.267)" fill="#d8dfeb"/>
        <path id="Caminho_418" data-name="Caminho 418" d="M1069.669,770.825a68.89,68.89,0,0,0-12.771-12.3,83.272,83.272,0,0,0-15.494-9.053,139.452,139.452,0,0,0-17.033-6.259c-5.81-1.769-11.7-3.311-17.588-4.849,5.859,1.623,11.719,3.252,17.488,5.1a138.68,138.68,0,0,1,16.867,6.488,82.388,82.388,0,0,1,15.215,9.208,67.873,67.873,0,0,1,12.4,12.331Z" transform="translate(-985.908 -727.85)" fill="#888e94"/>
      </g>
      <g id="Grupo_254" data-name="Grupo 254" transform="translate(58.002 84.606)">
        <path id="Caminho_419" data-name="Caminho 419" d="M1064.7,583.847a4.956,4.956,0,0,0-.546.412c-2.208,1.9-2.245,5.316-2.55,10.326-.328,5.4,1.435,13.767,1.435,13.767l.089.33q-.713-1.382-1.285-2.737l-.013-.029a38.463,38.463,0,0,1-1.327-3.623.141.141,0,0,1-.007-.019c-.076-.243-.147-.482-.216-.723-.005-.018-.011-.036-.015-.054a38.431,38.431,0,0,1-1.386-7.614c-.084-3.573.446-8.111,3.083-10.3C1064.032,583.124,1066.384,582.744,1064.7,583.847Z" transform="translate(-1058.87 -582.315)" fill="#d8dfeb"/>
        <path id="Caminho_420" data-name="Caminho 420" d="M1090.045,634.484l-3.274,16.092s-13.464-55.355-19.262-63.7a10.6,10.6,0,0,0-3.356-3.433c-3.412-1.781-4.919,3.831-4.927,9.9a27.609,27.609,0,0,0,1.037,7.334c0,.018.01.036.015.054.056.2.112.4.171.594a26.2,26.2,0,0,1-1.241-4.439,29.96,29.96,0,0,1-.33-3.823c-.084-3.574.446-8.111,3.083-10.3a5.61,5.61,0,0,1,3.057-1.256C1073.8,580.556,1090.045,634.484,1090.045,634.484Z" transform="translate(-1058.87 -581.496)" fill="#c7c7c7"/>
      </g>
      <g id="Grupo_255" data-name="Grupo 255" transform="translate(277.159 90.289)">
        <path id="Caminho_421" data-name="Caminho 421" d="M1628.2,597.152a6.61,6.61,0,0,1,.31.844c1.088,3.679-1.3,7.483-4.537,13.246-3.481,6.206-11.4,14.213-11.4,14.213l-.333.3q1.774-1.021,3.373-2.113l.035-.023c1.455-.992,2.8-2.018,4.05-3.063a.114.114,0,0,0,.021-.017c.258-.214.507-.429.755-.645.018-.016.038-.031.055-.05a50.565,50.565,0,0,0,6.96-7.439c2.639-3.9,5.286-9.294,3.928-13.6C1629.456,596.827,1627.124,594.731,1628.2,597.152Z" transform="translate(-1555.638 -594.487)" fill="#d8dfeb"/>
        <path id="Caminho_422" data-name="Caminho 422" d="M1506.5,634.451l-7.844,20.143s54.347-51.669,66.715-56.776a13.953,13.953,0,0,1,6.161-1.408c5.046.46,2.713,7.746-1.606,14.472a36.34,36.34,0,0,1-6.375,7.377c-.017.018-.036.034-.055.05q-.308.275-.612.536a34.537,34.537,0,0,0,4.537-4.029,39.45,39.45,0,0,0,3.09-4c2.64-3.9,5.286-9.294,3.928-13.6a7.389,7.389,0,0,0-2.488-3.568C1562.909,586.346,1506.5,634.451,1506.5,634.451Z" transform="translate(-1498.652 -592.9)" fill="#c7c7c7"/>
      </g>
      <g id="Grupo_256" data-name="Grupo 256" transform="translate(27.454 181.531)">
        <path id="Caminho_423" data-name="Caminho 423" d="M997.569,783.051s1.061,1.06,2.91,2.6a1.051,1.051,0,0,1,.188-.2,1.255,1.255,0,0,1,1.77,1.765c.76.587,1.6,1.205,2.5,1.836a1.785,1.785,0,0,1,.309-.333,1.723,1.723,0,0,1,2.569,2.228c.808.5,1.652,1,2.529,1.477a2.368,2.368,0,0,1,.714-1.011,2.4,2.4,0,0,1,3.58,3.107c.67.285,1.354.554,2.044.805a3.31,3.31,0,1,1,6.409,1.647c.806.119,1.619.2,2.434.242a2.67,2.67,0,1,1,5.334-.051c1.228-.049,2.421-.121,3.574-.208a2.242,2.242,0,1,1,4.462-.443,89.733,89.733,0,0,0,12.441-2.35c.431-.118.753-.212.956-.271.164-.049.25-.077.25-.077a45.32,45.32,0,0,0-5.545-7.246,2.243,2.243,0,0,1-3.208-3.126,36.525,36.525,0,0,0-3.642-2.82,2.818,2.818,0,0,1-.355.407,2.67,2.67,0,0,1-4.288-2.987,24.322,24.322,0,0,0-3.871-1.333,3.309,3.309,0,0,1-6.555-.718,45.419,45.419,0,0,0-6.085.4,2.4,2.4,0,0,1-4.629.8c-.855.182-1.693.381-2.511.591a1.722,1.722,0,0,1-3.314.934c-1.611.5-3.1,1.015-4.428,1.513a1.256,1.256,0,0,1-2.21.983c-.024-.029-.046-.059-.07-.09C999.171,782.223,997.569,783.051,997.569,783.051Z" transform="translate(-997.569 -775.995)" fill="#c7c7c7"/>
        <path id="Caminho_424" data-name="Caminho 424" d="M1064.213,803.236c-4.017-2.77-8.113-5.443-12.387-7.817a76.455,76.455,0,0,0-13.378-5.96,51.557,51.557,0,0,0-14.382-2.591,38.329,38.329,0,0,0-14.382,2.2,38.222,38.222,0,0,1,14.374-1.989,51.255,51.255,0,0,1,14.255,2.783,75.907,75.907,0,0,1,13.2,6.113c4.212,2.421,8.248,5.139,12.212,7.959Z" transform="translate(-1003.646 -781.44)" fill="#888e94"/>
        <path id="Caminho_425" data-name="Caminho 425" d="M1077,791.739a101.741,101.741,0,0,0-11.578-9.187,101.512,101.512,0,0,1,11.284,9.5Z" transform="translate(-1031.607 -779.285)" fill="#888e94"/>
        <path id="Caminho_426" data-name="Caminho 426" d="M1060.57,794.377a36.085,36.085,0,0,0-11.823,6,35.877,35.877,0,0,1,11.936-5.592Z" transform="translate(-1023.243 -785.217)" fill="#888e94"/>
        <path id="Caminho_427" data-name="Caminho 427" d="M1050.61,785.661a30.627,30.627,0,0,0-8.067-3.938,30.414,30.414,0,0,1,7.817,4.284Z" transform="translate(-1020.131 -778.869)" fill="#888e94"/>
        <path id="Caminho_428" data-name="Caminho 428" d="M1033.67,787.029a11.358,11.358,0,0,0-7.719,4.127,11.148,11.148,0,0,1,7.747-3.7Z" transform="translate(-1011.807 -781.531)" fill="#888e94"/>
        <path id="Caminho_429" data-name="Caminho 429" d="M1021.771,786.817l-5.439-.278,5.423.491Z" transform="translate(-1006.982 -781.284)" fill="#888e94"/>
      </g>
    </g>
    <g id="Grupo_264" data-name="Grupo 264" transform="translate(790.113 346.06)">
      <g id="Grupo_258" data-name="Grupo 258" transform="translate(142.026)">
        <path id="Caminho_430" data-name="Caminho 430" d="M1316.142,640.9H1120.271l21.323-157.1a11.274,11.274,0,0,1,11.171-9.757h173.119a11.273,11.273,0,0,1,11.171,12.79Z" transform="translate(-1120.271 -474.045)" fill="#003e96"/>
      </g>
      <g id="Grupo_259" data-name="Grupo 259" transform="translate(131.856)">
        <path id="Caminho_431" data-name="Caminho 431" d="M1295.735,640.9H1099.862l21.323-157.1a11.274,11.274,0,0,1,11.172-9.757h173.118a11.273,11.273,0,0,1,11.171,12.79Z" transform="translate(-1099.862 -474.045)" fill="#93cbfa"/>
      </g>
      <g id="Grupo_260" data-name="Grupo 260" transform="translate(137.183 7.201)">
        <path id="Caminho_432" data-name="Caminho 432" d="M1293.195,648.148H1110.552l21.324-149.9a11.272,11.272,0,0,1,11.17-9.757h159.889a11.274,11.274,0,0,1,11.171,12.79Z" transform="translate(-1110.552 -488.496)" fill="#eff5f9"/>
      </g>
      <g id="Grupo_261" data-name="Grupo 261" transform="translate(136.524 7.35)">
        <path id="Caminho_433" data-name="Caminho 433" d="M1292.531,649.765H1109.888a.659.659,0,0,1-.653-.753l21.324-149.9a11.973,11.973,0,0,1,11.824-10.324h159.888a11.932,11.932,0,0,1,11.825,13.538L1293.183,649.2A.659.659,0,0,1,1292.531,649.765Zm-181.883-1.319h181.31l20.831-146.3a10.616,10.616,0,0,0-10.519-12.038H1142.383a10.653,10.653,0,0,0-10.518,9.187Z" transform="translate(-1109.229 -488.794)" fill="#fff"/>
      </g>
      <g id="Grupo_262" data-name="Grupo 262" transform="translate(0 166.854)">
        <path id="Caminho_434" data-name="Caminho 434" d="M1010.264,823.813H842.738a7.471,7.471,0,0,1-7.471-7.471h0a7.472,7.472,0,0,1,7.471-7.472h167.526Z" transform="translate(-835.267 -808.87)" fill="#82c0dc"/>
      </g>
      <g id="Grupo_263" data-name="Grupo 263" transform="translate(162.972 166.854)">
        <path id="Caminho_435" data-name="Caminho 435" d="M1337.3,823.813H1169.773a7.471,7.471,0,0,1-7.471-7.471h0a7.472,7.472,0,0,1,7.471-7.472H1337.3Z" transform="translate(-1162.302 -808.87)" fill="#003e96"/>
      </g>
    </g>
    <g id="Grupo_265" data-name="Grupo 265" transform="translate(810.566 242.297)">
      <path id="Caminho_436" data-name="Caminho 436" d="M1224.358,297.9a198,198,0,0,1-2.224-27.317c0-3.812,1.907-4.764,4.765-4.764,6.988,0,24.458.635,32.4.635a34.993,34.993,0,0,1,5.082.954c2.223.317,4.763,1.588,4.763,4.446-17.786,185.176-17.786,196.61-17.786,198.834,0,8.893-1.59,11.117-7.305,11.117-5.082,0-10.8-1.271-10.8-11.117Zm7.305,222.337c0-9.847,5.082-22.869,12.706-22.869,6.035,0,12.7,9.529,12.7,18.423s-7.307,20.645-13.34,20.645C1239.286,536.441,1231.663,528.818,1231.663,520.242Z" transform="translate(-1049.798 -265.824)" fill="#e3ffe8"/>
      <path id="Caminho_437" data-name="Caminho 437" d="M934.117,418.956c12.388-30.809,33.351-55.267,33.351-90.523,0-19.058-12.7-28.586-28.586-28.586-24.14,0-44.468,18.1-44.468,46.055,12.388-4.447,30.492,6.352,30.492,21.6,0,16.834-5.717,28.587-21.6,28.587-21.281,0-27-17.47-27-36.845a75.15,75.15,0,0,1,5.4-26.363c12.07-29.857,39.068-56.219,74.642-56.219,27,0,47.643,10.164,59.079,39.067a41.294,41.294,0,0,1,3.493,16.2c0,42.562-44.784,74.96-68.924,107.993-7.94,11.116-9.845,29.857-11.116,43.515-4.448,5.717-8.577-3.494-9.53-7.306C929.353,457.388,925.225,437.378,934.117,418.956Zm6.988,77.818c7.306,0,15.881,10.8,15.881,18.739,0,12.388-6.988,25.093-18.421,25.093-9.212,0-17.788-9.847-17.788-19.693C920.777,508.526,929.353,496.774,941.1,496.774Z" transform="translate(-876.309 -271.26)" fill="#34ba8a"/>
    </g>
    <g id="Grupo_268" data-name="Grupo 268" transform="translate(745.26 355.914)">
      <g id="Grupo_267" data-name="Grupo 267">
        <g id="Grupo_266" data-name="Grupo 266">
          <path id="Caminho_438" data-name="Caminho 438" d="M750.834,535.1l44.236-4.071,7.044,5.134-1-5.69,3.127-.288a2.432,2.432,0,0,0,2.218-2.628l-2.9-31.544a2.432,2.432,0,0,0-2.661-2.178l-53.4,4.915a2.432,2.432,0,0,0-2.218,2.627l2.9,31.544A2.432,2.432,0,0,0,750.834,535.1Z" transform="translate(-745.26 -493.82)" fill="#003e96"/>
        </g>
      </g>
      <circle id="Elipse_29" data-name="Elipse 29" cx="2.552" cy="2.552" r="2.552" transform="matrix(0.646, -0.763, 0.763, 0.646, 19.163, 22.12)" fill="#fff"/>
      <path id="Caminho_439" data-name="Caminho 439" d="M806.643,533.519a2.552,2.552,0,1,1-2.755-2.332A2.553,2.553,0,0,1,806.643,533.519Z" transform="translate(-773.497 -512.561)" fill="#fff"/>
      <path id="Caminho_440" data-name="Caminho 440" d="M822.379,532.212a2.552,2.552,0,1,1-2.754-2.332A2.552,2.552,0,0,1,822.379,532.212Z" transform="translate(-781.392 -511.905)" fill="#fff"/>
    </g>
    <g id="Grupo_271" data-name="Grupo 271" transform="translate(932.717 454.067)">
      <path id="Caminho_441" data-name="Caminho 441" d="M1161.738,713.294c.422,1.572-.208,3.107-1.409,3.429s-2.514-.691-2.936-2.263.209-3.107,1.409-3.429S1161.316,711.723,1161.738,713.294Z" transform="translate(-1139.405 -700.911)" fill="#00142b"/>
      <path id="Caminho_442" data-name="Caminho 442" d="M1157.584,708.367a2.956,2.956,0,1,1,2.1-3.415A2.837,2.837,0,0,1,1157.584,708.367Z" transform="translate(-1137.915 -696.68)" fill="#00142b"/>
      <path id="Caminho_443" data-name="Caminho 443" d="M1161.179,699.533a2.947,2.947,0,1,1,2.324-3.46A2.948,2.948,0,0,1,1161.179,699.533Z" transform="translate(-1139.607 -692.243)" fill="#00142b"/>
      <path id="Caminho_444" data-name="Caminho 444" d="M1167.638,696.622a2.947,2.947,0,1,1,2.323-3.459A2.946,2.946,0,0,1,1167.638,696.622Z" transform="translate(-1142.847 -690.783)" fill="#00142b"/>
      <path id="Caminho_445" data-name="Caminho 445" d="M1175.824,697.9a2.947,2.947,0,1,1,2.324-3.459A2.947,2.947,0,0,1,1175.824,697.9Z" transform="translate(-1146.954 -691.423)" fill="#00142b"/>
      <path id="Caminho_446" data-name="Caminho 446" d="M1180.788,702.083a2.956,2.956,0,1,1,2.108-3.417A2.844,2.844,0,0,1,1180.788,702.083Z" transform="translate(-1149.55 -693.527)" fill="#00142b"/>
      <path id="Caminho_447" data-name="Caminho 447" d="M1180.577,708.679a2.989,2.989,0,1,1,2.633-2.817A2.746,2.746,0,0,1,1180.577,708.679Z" transform="translate(-1149.928 -696.807)" fill="#00142b"/>
      <path id="Caminho_448" data-name="Caminho 448" d="M1177.106,716.151a3.021,3.021,0,1,1,3.261-1.9A2.7,2.7,0,0,1,1177.106,716.151Z" transform="translate(-1148.668 -700.687)" fill="#00142b"/>
      <path id="Caminho_449" data-name="Caminho 449" d="M1176.229,702.539a2.947,2.947,0,1,1,2.083-3.61A2.947,2.947,0,0,1,1176.229,702.539Z" transform="translate(-1147.059 -693.774)" fill="#00142b"/>
      <path id="Caminho_450" data-name="Caminho 450" d="M1167.95,703.718a2.947,2.947,0,1,1,2.083-3.609A2.946,2.946,0,0,1,1167.95,703.718Z" transform="translate(-1142.905 -694.366)" fill="#00142b"/>
      <path id="Caminho_451" data-name="Caminho 451" d="M1159.216,703.173a2.947,2.947,0,1,1,2.083-3.61A2.947,2.947,0,0,1,1159.216,703.173Z" transform="translate(-1138.524 -694.093)" fill="#00142b"/>
      <path id="Caminho_452" data-name="Caminho 452" d="M1193.864,732.239c3.913.064,9.151,11.069,10.152,13.849s1.9,4.379,1.434,5.466-3.715,3.173-6.368-.166S1186.266,732.115,1193.864,732.239Z" transform="translate(-1156.378 -711.58)" fill="#fff"/>
      <path id="Caminho_453" data-name="Caminho 453" d="M1190.894,775.9s11.695-7.1,12.347-9.2-.122-5.179-2.171-5.46-12.876,10-12.876,10S1186.934,774.313,1190.894,775.9Z" transform="translate(-1154.827 -726.126)" fill="#fff"/>
      <path id="Caminho_454" data-name="Caminho 454" d="M1136.134,733.235c-3.912.064-9.193,10.573-10.193,13.352s-1.9,4.379-1.434,5.466,3.715,3.173,6.368-.166S1143.732,733.111,1136.134,733.235Z" transform="translate(-1122.909 -712.08)" fill="#fff"/>
      <path id="Caminho_455" data-name="Caminho 455" d="M1138.077,775.9s-11.695-7.1-12.347-9.2.121-5.179,2.171-5.46,12.876,10,12.876,10S1142.036,774.313,1138.077,775.9Z" transform="translate(-1123.473 -726.126)" fill="#fff"/>
      <path id="Caminho_456" data-name="Caminho 456" d="M1153.854,727.26l-8.034,3.1-1.4,22.71,27.3,1.489-1.132-24.834-6.809-1.967Z" transform="translate(-1132.965 -709.083)" fill="#e6e6e6"/>
      <path id="Caminho_457" data-name="Caminho 457" d="M1137.541,788.235l-13.418,10,5.649,4.658,21.342-8.934-1.985-8.934Z" transform="translate(-1122.781 -738.062)" fill="#00142b"/>
      <rect id="Retângulo_74" data-name="Retângulo 74" width="6.986" height="4.763" transform="translate(21.747 17.783)" fill="#cf9131"/>
      <path id="Caminho_458" data-name="Caminho 458" d="M1154.708,856.593l3-3.9a3.228,3.228,0,0,1,1.772.478,4.3,4.3,0,0,1,1.237,1.285s-.357,7.191-1.585,9.394c0,0-3.654,7.454-4.988.872C1153.6,862.045,1154.708,856.593,1154.708,856.593Z" transform="translate(-1137.766 -772.009)" fill="#999"/>
      <path id="Caminho_459" data-name="Caminho 459" d="M1154.276,855.841l3-3.9a3.23,3.23,0,0,1,1.771.478,4.31,4.31,0,0,1,1.237,1.285s-.356,7.191-1.585,9.395c0,0-3.654,7.454-4.988.871C1153.169,861.292,1154.276,855.841,1154.276,855.841Z" transform="translate(-1137.549 -771.632)" fill="#113145"/>
      <path id="Caminho_460" data-name="Caminho 460" d="M1151.965,852.526l1.487,2.089a4,4,0,0,0,3.2-.9c1.114-1.22,1.064-1.982,1.064-1.982l-1.817-3.31Z" transform="translate(-1136.748 -769.866)" fill="#dedee2"/>
      <path id="Caminho_461" data-name="Caminho 461" d="M1135.734,833.261l-13.219-17.017s-3.4-4.916,1.829-6.777,9.315,7.24,9.315,7.24l7.787,11.553S1142.015,834.229,1135.734,833.261Z" transform="translate(-1121.429 -750.197)" fill="#00142b"/>
      <path id="Caminho_462" data-name="Caminho 462" d="M1181.8,787.008l16.072,10.728-5.649,4.657-18.86-7.941.467-10.423Z" transform="translate(-1147.484 -737.562)" fill="#00142b"/>
      <path id="Caminho_463" data-name="Caminho 463" d="M1187.391,857.719l-3.351-3.845a3.347,3.347,0,0,0-1.8.607,4.471,4.471,0,0,0-1.2,1.408s.822,7.422,2.232,9.626c0,0,4.252,7.486,5.219.588C1188.881,863.292,1187.391,857.719,1187.391,857.719Z" transform="translate(-1151.332 -772.601)" fill="#999"/>
      <path id="Caminho_464" data-name="Caminho 464" d="M1187.792,856.912l-3.351-3.844a3.351,3.351,0,0,0-1.8.606,4.47,4.47,0,0,0-1.2,1.408s.822,7.422,2.233,9.626c0,0,4.252,7.487,5.219.588C1189.282,862.486,1187.792,856.912,1187.792,856.912Z" transform="translate(-1151.533 -772.196)" fill="#113145"/>
      <path id="Caminho_465" data-name="Caminho 465" d="M1166.335,753.605l1.985-12.9.993-1.489.5,1.489,1.489,12.408Z" transform="translate(-1143.957 -715.078)" fill="#f24841"/>
      <path id="Caminho_466" data-name="Caminho 466" d="M1190.552,853.851l-1.357,2.175a4,4,0,0,1-3.254-.7c-1.186-1.15-1.182-1.914-1.182-1.914l1.612-3.414Z" transform="translate(-1153.2 -770.654)" fill="#dedee2"/>
      <path id="Caminho_467" data-name="Caminho 467" d="M1192.216,833.651l12.16-17.789s3.094-5.113-2.237-6.653-8.858,7.792-8.858,7.792l-7.071,12S1186,835,1192.216,833.651Z" transform="translate(-1153.927 -750.108)" fill="#00142b"/>
      <path id="Caminho_468" data-name="Caminho 468" d="M1167.33,737.213l1.489,1.489h1.489l1.985-1.985-2.978-1.489Z" transform="translate(-1144.456 -713.08)" fill="#f24841"/>
      <path id="Caminho_469" data-name="Caminho 469" d="M1141.436,762.119l1.026,17.371h28.223l1.026-17.371Z" transform="translate(-1131.466 -726.57)" fill="#afb5e0"/>
      <g id="Grupo_269" data-name="Grupo 269" transform="translate(18.639 17.185)">
        <path id="Caminho_470" data-name="Caminho 470" d="M1165.317,730.232l-1.985,2.978-4.5-6.468,2.019-1.473Z" transform="translate(-1158.831 -725.268)" fill="#fff"/>
        <path id="Caminho_471" data-name="Caminho 471" d="M1171.778,730.232l1.985,2.978,4.5-6.468-2.019-1.473Z" transform="translate(-1165.326 -725.268)" fill="#fff"/>
      </g>
      <path id="Caminho_472" data-name="Caminho 472" d="M1159.958,706.3a40.489,40.489,0,0,0,.69,5.991,16.558,16.558,0,0,0,1.985,3.345,6.026,6.026,0,0,0,3.474,1.618,7.75,7.75,0,0,0,3.97-2.978c1.489-1.985,1.489-5.956,1.489-5.956s0-2.894-.495-3.608c-.781-1.127-3.476-1.356-4.965-.363s-3.474-.993-4.467-.993S1160.028,705.408,1159.958,706.3Z" transform="translate(-1140.752 -697.091)" fill="#fcd8b1"/>
      <g id="Grupo_270" data-name="Grupo 270" transform="translate(19.206 9.967)">
        <path id="Caminho_473" data-name="Caminho 473" d="M1171.726,714.69l-.1.009-4.6.419h-.476l-4.6-.419-.1-.009.012.376h0l.183,1.552a.679.679,0,0,0,.678.678h2.913c.37,0,.78-1.087.78-1.087a.468.468,0,0,1,.73,0s.41,1.087.78,1.087h2.913a.679.679,0,0,0,.678-.678l.183-1.552h0Zm-5.98,1.97a.06.06,0,0,1-.012.018.52.52,0,0,1-.34.271.027.027,0,0,1-.015,0,.246.246,0,0,1-.063.012.62.62,0,0,1-.072.006H1162.9a.531.531,0,0,1-.545-.509l-.147-1.16,0-.033a.544.544,0,0,1,.03-.169.765.765,0,0,1,.036-.075l3.706.313.114.009A3.045,3.045,0,0,1,1165.745,716.66Zm5.63-1.359-.147,1.16a.531.531,0,0,1-.545.509h-2.344a.62.62,0,0,1-.072-.006.523.523,0,0,1-.063-.012.117.117,0,0,0-.015,0,.637.637,0,0,1-.34-.271c-.006-.006-.012-.012-.012-.018a3.046,3.046,0,0,1-.344-1.313l.115-.009,3.705-.313a.8.8,0,0,1,.036.075.544.544,0,0,1,.03.169Z" transform="translate(-1160.916 -712.744)" fill="#00142b"/>
        <path id="Caminho_474" data-name="Caminho 474" d="M1159.97,710.784l1.1,1.962.1.749-1.205-1.807Z" transform="translate(-1159.97 -710.784)" fill="#00142b"/>
        <path id="Caminho_475" data-name="Caminho 475" d="M1182.335,710.784l-1.1,1.962-.1.749,1.2-1.807Z" transform="translate(-1170.585 -710.784)" fill="#00142b"/>
      </g>
      <path id="Caminho_476" data-name="Caminho 476" d="M1171.8,777.666a1.869,1.869,0,1,1-1.869-1.869A1.869,1.869,0,0,1,1171.8,777.666Z" transform="translate(-1144.823 -733.432)" fill="#dedee2"/>
    </g>
    <g id="Grupo_279" data-name="Grupo 279" transform="translate(1022.225 276.554)">
      <g id="Grupo_273" data-name="Grupo 273" transform="translate(16.599 37.685)">
        <g id="Grupo_272" data-name="Grupo 272" transform="translate(27.686 23.674)">
          <path id="Caminho_477" data-name="Caminho 477" d="M1390.5,460.652l1.7,2.067,2.714-1.107.36-1.267-2.9-2.648Z" transform="translate(-1390.205 -457.698)" fill="#dedee2"/>
          <path id="Caminho_478" data-name="Caminho 478" d="M1390.309,466.171l-.335,1.54a1.184,1.184,0,0,0,.812,1.5,31.231,31.231,0,0,0,5.362.217l8.013-.63s.335-1.54-.441-1.9-.752.406-.752.406Z" transform="translate(-1389.918 -461.948)" fill="#999"/>
          <path id="Caminho_479" data-name="Caminho 479" d="M1404.129,466.178l-8.013.63a31.27,31.27,0,0,1-5.362-.217c-1.158-.347-.788-.741-.788-.741l.311-2.3s.132-.054.355-.134a2.425,2.425,0,0,0,1.961.827,2.187,2.187,0,0,0,2.229-1.778.765.765,0,0,1,.4.167c.788.741,7.714,2.057,7.714,2.057l.776.359A.837.837,0,0,1,1404.129,466.178Z" transform="translate(-1389.91 -460.087)" fill="#113145"/>
        </g>
        <path id="Caminho_480" data-name="Caminho 480" d="M1382.358,435.316l-5.692,1.643s-12.734-20.165-12.2-22.4c.687-2.9,2.639-5.169,5.495-4.1C1370.959,410.839,1382.358,435.316,1382.358,435.316Z" transform="translate(-1349.45 -410.191)" fill="#113145"/>
        <path id="Caminho_481" data-name="Caminho 481" d="M1354.437,410.64a1.794,1.794,0,0,1,.17.18,6.113,6.113,0,0,1,.691,1.06,6.569,6.569,0,0,1,.154,5.04,36.057,36.057,0,0,1-2.468,5.614c-.4.79-.82,1.609-1.249,2.464-1.761,3.523-4.207,8-5.976,11.189a18.084,18.084,0,0,1-3.623,2.942,4.417,4.417,0,0,1-.984.428c-.234.123-.485.242-.758.357-5.539-1.014-6.448-4.159-5.9-7.386a13.684,13.684,0,0,1,.384-1.638c.111-.375.234-.748.367-1.115a16.288,16.288,0,0,1,1.492-2.378c3.425-4.879,11.786-15.261,15.921-16.849A1.66,1.66,0,0,1,1354.437,410.64Z" transform="translate(-1334.353 -410.266)" fill="#113145"/>
      </g>
      <path id="Caminho_482" data-name="Caminho 482" d="M1315.344,367.049l5.522,2.07,1.08-5.843-4.381-2.132Z" transform="translate(-1308.218 -347.901)" fill="#d1b852"/>
      <g id="Grupo_274" data-name="Grupo 274" transform="translate(8.144 23.305)">
        <path id="Caminho_483" data-name="Caminho 483" d="M1373.571,443.968a13.617,13.617,0,0,1,4.185.082c1.934.417,3.344,3.3,3.344,3.3s1.569,3.512-.221,2-4.1-2.93-4.634-2.82a3.432,3.432,0,0,1-3.934-1.549C1371.01,442.846,1373.571,443.968,1373.571,443.968Z" transform="translate(-1344.756 -412.608)" fill="#d1b852"/>
        <path id="Caminho_484" data-name="Caminho 484" d="M1317.392,384.8a8.357,8.357,0,0,0,1.288,4.179,60.53,60.53,0,0,0,9.065,12.738,8.519,8.519,0,0,0,2.958,2.311,3.2,3.2,0,0,0,3.507-.591c1.211-1.353.526-3.478-.264-5.112a93.2,93.2,0,0,0-8.026-13.542,9.674,9.674,0,0,0-2.749-2.862A3.708,3.708,0,0,0,1317.392,384.8Z" transform="translate(-1317.388 -381.334)" fill="#ccc"/>
        <path id="Caminho_485" data-name="Caminho 485" d="M1359.978,430.064l-3.518,2.624s-14.331-11.121-15.323-12.43,1.093-4.458,4.128-2.985S1359.978,430.064,1359.978,430.064Z" transform="translate(-1329.177 -399.171)" fill="#ccc"/>
      </g>
      <path id="Caminho_486" data-name="Caminho 486" d="M1323.862,412.395s-.453,6.615-3.437,8.667a3.386,3.386,0,0,1-2.7.519c-1.545-.314-3.471-1.547-5.871-4.2l0-.007c-.353-.586-.722-1.209-1.1-1.866-.821-1.429-1.688-3.013-2.556-4.715a74.41,74.41,0,0,1-6.655-17.75c-2.6-12.351,5.916-20.62,5.916-20.62,8-7.656,13.827,23.488,15.735,35.46,0,0,0,.007,0,.012.04.243.074.48.109.7.071.453.135.873.195,1.254.087.586.161,1.082.218,1.478C1323.813,412.016,1323.862,412.395,1323.862,412.395Z" transform="translate(-1301.044 -352.959)" fill="#e6e6e6"/>
      <g id="Grupo_275" data-name="Grupo 275" transform="translate(5.46 25.292)">
        <path id="Caminho_487" data-name="Caminho 487" d="M1369.049,447.214a13.609,13.609,0,0,1,4.137-.639c1.977.078,3.863,2.68,3.863,2.68s2.15,3.189.126,2.007-4.542-2.181-5.051-1.98a3.433,3.433,0,0,1-4.142-.849C1366.333,446.55,1369.049,447.214,1369.049,447.214Z" transform="translate(-1339.819 -416.048)" fill="#fcd8b1"/>
        <path id="Caminho_488" data-name="Caminho 488" d="M1312.031,388.548a8.355,8.355,0,0,0,1,4.256,60.527,60.527,0,0,0,8.19,13.318,8.514,8.514,0,0,0,2.8,2.5,3.2,3.2,0,0,0,3.538-.354c1.3-1.269.758-3.434.079-5.118a93.108,93.108,0,0,0-7.1-14.049,9.661,9.661,0,0,0-2.55-3.04A3.708,3.708,0,0,0,1312.031,388.548Z" transform="translate(-1312.002 -385.323)" fill="#fff"/>
        <path id="Caminho_489" data-name="Caminho 489" d="M1353.407,434.251l-3.208,2.995s-15.467-9.479-16.6-10.671.6-4.551,3.775-3.421S1353.407,434.251,1353.407,434.251Z" transform="translate(-1322.664 -404.187)" fill="#fff"/>
      </g>
      <path id="Caminho_490" data-name="Caminho 490" d="M1312.9,371.81c.421-.331,8.476,3.541,8.476,3.541l-.809-4.348-6.149-2.524Z" transform="translate(-1306.99 -351.58)" fill="#fff"/>
      <g id="Grupo_276" data-name="Grupo 276" transform="translate(6.571 0)">
        <path id="Caminho_491" data-name="Caminho 491" d="M1329.658,354.328c-1.121,1.916-2.372,4.5-3.613,4.285a7.83,7.83,0,0,1-3.757-2.141c-1.066-.981-3.274-3.018-3.807-4.365-.917-2.319-.552-3.763.194-6.142a7.575,7.575,0,0,1,5.036-5.1,7.873,7.873,0,0,1,4.458.224,7.678,7.678,0,0,1,3.919,2.749,5.481,5.481,0,0,1,.607,5.052C1332.07,350.98,1330.786,352.4,1329.658,354.328Z" transform="translate(-1316.089 -337.613)" fill="#fcd8b1"/>
        <path id="Caminho_492" data-name="Caminho 492" d="M1322.442,344.293a1.837,1.837,0,0,0-2.42-.567c-1.04.636-1.141,2.08-1.137,3.3s-.129,2.668-1.19,3.269a2.391,2.391,0,0,1-3.094-1.31,6.361,6.361,0,0,1-.191-3.711c.223-1.384,1.394-2.606,1.675-3.98.432-2.114.644-4.249,2.457-5.419,1.129-.728,2.622-.211,3.962-.314,1.611-.124,2.632-1.244,4.219-.938,1.779.343,2.391,2.019,3.99,2.872.893.476,2.846.179,3.368,1.045a3.607,3.607,0,0,1,.449,2.1,5.037,5.037,0,0,1-3.443,4.367,13,13,0,0,0-2.216-2.507,4.378,4.378,0,0,0-3.1-1.06,2.672,2.672,0,0,0-2.384,2.024c-.12.675.1,2.277.014,2.957-.061.492-.519.722-1.1.35C1322.55,345.987,1322.982,345.15,1322.442,344.293Z" transform="translate(-1314.229 -334.568)" fill="#00142b"/>
      </g>
      <g id="Grupo_278" data-name="Grupo 278" transform="translate(7.149 54.936)">
        <g id="Grupo_277" data-name="Grupo 277" transform="translate(40.902 34.524)">
          <path id="Caminho_493" data-name="Caminho 493" d="M1400.109,514.112l-.283,2.663,2.914,1.2,1.243-.615.485-3.278Z" transform="translate(-1398.652 -514.088)" fill="#dedee2"/>
          <path id="Caminho_494" data-name="Caminho 494" d="M1398.21,520.129l-.6,1.457a1.184,1.184,0,0,0,.532,1.625,31.246,31.246,0,0,0,5.239,1.162l8,.8s.6-1.457-.1-1.947-.812.267-.812.267Z" transform="translate(-1397.469 -517.118)" fill="#999"/>
          <path id="Caminho_495" data-name="Caminho 495" d="M1411.541,523.386l-8-.8a31.219,31.219,0,0,1-5.239-1.161c-1.078-.546-.644-.869-.644-.869l.714-2.213s.14-.03.373-.068a2.427,2.427,0,0,0,1.784,1.161,2.188,2.188,0,0,0,2.508-1.356.77.77,0,0,1,.363.236c.645.868,7.228,3.389,7.228,3.389l.7.49A.837.837,0,0,1,1411.541,523.386Z" transform="translate(-1397.522 -516.091)" fill="#113145"/>
        </g>
        <path id="Caminho_496" data-name="Caminho 496" d="M1364.13,458.835a1.224,1.224,0,0,1-.082.2c-.9,1.774-2.505,2.716-4.656,3.275-.224.059-.454.112-.691.163a46.359,46.359,0,0,1-5.734.7c-.875.071-1.789.142-2.738.224a74.657,74.657,0,0,1-13.854.026,18.865,18.865,0,0,1-4.531-1.02,4.471,4.471,0,0,1-.935-.492c-3.541-2.484,2.183-8.236,6.565-9.06a4.372,4.372,0,0,1,.731-.034,117.518,117.518,0,0,1,19.783,2.695,30.975,30.975,0,0,1,3.514,1.049,7.419,7.419,0,0,1,2.155,1.138A1.069,1.069,0,0,1,1364.13,458.835Z" transform="translate(-1322.62 -448.828)" fill="#00142b"/>
        <path id="Caminho_497" data-name="Caminho 497" d="M1397.493,488.7l-5.223,1.088s-8.729-23.308-7.739-25.382a4.324,4.324,0,0,1,6.593-1.928C1392.024,463.063,1397.493,488.7,1397.493,488.7Z" transform="translate(-1350.037 -453.258)" fill="#00142b"/>
        <path id="Caminho_498" data-name="Caminho 498" d="M1331.059,449.308s-.453,6.615-3.437,8.667a13.1,13.1,0,0,1-2.615.529c-.03,0-.059,0-.089-.01a6.286,6.286,0,0,1-1.861-.744c-.233-.134-.472-.284-.719-.457a19.471,19.471,0,0,1-3.291-3l0-.007c-.353-.586-.722-1.209-1.1-1.866-.821-1.429-1.688-3.013-2.556-4.715,1.95.154,4.45,1.659,9.767-.039.175-.054.354-.114.534-.178a7.652,7.652,0,0,0,1.038-.46c1.214-.628,2.507-1.565,3.659-2.22.04.243.074.48.109.7.062.383.116.745.168,1.075.01.062.017.121.027.178.069.467.131.878.181,1.226.012.089.025.173.037.252C1331.01,448.93,1331.059,449.308,1331.059,449.308Z" transform="translate(-1315.391 -444.809)" fill="#00142b"/>
      </g>
      <path id="Caminho_499" data-name="Caminho 499" d="M1380.854,456.536l-18.032-3.335a.868.868,0,0,1-.694-1.009h0a.869.869,0,0,1,1.009-.694l18.031,3.335a.869.869,0,0,1,.694,1.009h0A.869.869,0,0,1,1380.854,456.536Z" transform="translate(-1331.681 -393.221)" fill="#6c6966"/>
      <path id="Caminho_500" data-name="Caminho 500" d="M1401.168,440.285l8.535-16.229a.868.868,0,0,1,1.169-.363h0a.868.868,0,0,1,.363,1.169l-8.535,16.23a.869.869,0,0,1-1.169.363h0A.869.869,0,0,1,1401.168,440.285Z" transform="translate(-1351.224 -379.229)" fill="#6c6966"/>
      <path id="Caminho_501" data-name="Caminho 501" d="M1329.6,357.083a35.013,35.013,0,0,1-.131,3.893c-.165.66,1.419,1.617,1.419,1.617s1.023-.726,1.682-.561a1.468,1.468,0,0,1,.924.792s-1.88,3.6-2.507,3.861-4.22-2.086-4.4-2.808,2.488-8.047,2.488-8.047Z" transform="translate(-1313.85 -345.234)" fill="#00142b"/>
    </g>
    <path id="Caminho_502" data-name="Caminho 502" d="M1219.425,319.449c2.688,0,4.867-2.756,4.867-5.443a4.866,4.866,0,0,0-7.485-4.1,7.57,7.57,0,0,0-9.794-5.8,11.464,11.464,0,0,0-20.9,1.168,7.57,7.57,0,1,0-3.13,14.464Z" transform="translate(-215.791 -39.614)" fill="#d8dfeb"/>
    <path id="Caminho_503" data-name="Caminho 503" d="M1532.167,366.406c2.487,0,4.5-2.55,4.5-5.037a4.5,4.5,0,0,0-6.925-3.794,7,7,0,0,0-9.061-5.364,10.606,10.606,0,0,0-19.34,1.08,7,7,0,1,0-2.9,13.381Z" transform="translate(-374.337 -63.98)" fill="#d8dfeb"/>
    <path id="Caminho_504" data-name="Caminho 504" d="M875.519,355.384c3.31,0,5.992-3.393,5.992-6.7a5.99,5.99,0,0,0-9.216-5.05,9.319,9.319,0,0,0-12.059-7.138,14.114,14.114,0,0,0-25.738,1.438,9.321,9.321,0,1,0-3.854,17.807Z" transform="translate(-38.159 -55.141)" fill="#d8dfeb"/>
    <g id="Grupo_281" data-name="Grupo 281" transform="translate(1126.753 372.5)">
      <g id="Grupo_280" data-name="Grupo 280" transform="translate(0 11.499)">
        <path id="Caminho_505" data-name="Caminho 505" d="M1511.469,599.106a.579.579,0,0,1-.619-.8,56.023,56.023,0,0,1,22.1-25.284,13.738,13.738,0,0,1-1.6-6.832,13.564,13.564,0,0,1,8.426-12.337l8.677-3.627a.578.578,0,0,1,.446,1.067l-8.676,3.627a12.42,12.42,0,0,0-7.716,11.3,12.593,12.593,0,0,0,1.443,6.21q1.562-.908,3.187-1.718l1.937-.964a5.09,5.09,0,1,1,.114,9.168,13.723,13.723,0,0,1-5.645-4.9,54.857,54.857,0,0,0-21.63,24.753A.58.58,0,0,1,1511.469,599.106Zm23.068-25.686a12.556,12.556,0,0,0,5.141,4.443,3.933,3.933,0,1,0-.091-7.086l-1.937.964Q1536.062,572.532,1534.537,573.42Z" transform="translate(-1510.802 -550.177)" fill="#d8dfeb"/>
      </g>
      <path id="Caminho_506" data-name="Caminho 506" d="M1586.442,536.365c-.055-.055-1.542,3.083-2.4,4.909a.845.845,0,0,0,.811,1.2l7.965-.412,24.32-10.367Z" transform="translate(-1547.503 -529.407)" fill="#e3ffe8"/>
      <path id="Caminho_507" data-name="Caminho 507" d="M1575.3,527.306l7.094,7.174a.12.12,0,0,0,.1.035l25.233-3.837a.12.12,0,0,1,.048.234l-21.433,5.642a.12.12,0,0,0-.066.187l7.458,10.1a.12.12,0,0,0,.174.02l21.185-17.767a.12.12,0,0,0-.071-.212l-39.633-1.785A.12.12,0,0,0,1575.3,527.306Z" transform="translate(-1543.139 -527.102)" fill="#73be8e"/>
    </g>
    <g id="Grupo_288" data-name="Grupo 288" transform="translate(766.345 414.881)">
      <g id="Grupo_283" data-name="Grupo 283" transform="translate(31.152 3.266)">
        <g id="Grupo_282" data-name="Grupo 282">
          <path id="Caminho_508" data-name="Caminho 508" d="M914.448,662.861s8.094-.36,9.659-2.285c2.239-2.756,10.9-8.823,10.9-8.823l-3.193-.249-12.288,6.758-9.456.218Z" transform="translate(-880.178 -635.158)" fill="#fcd8b1"/>
          <path id="Caminho_509" data-name="Caminho 509" d="M857.166,669.7s-7.623,13.247-7.053,15.383c.816,3.057,10.047,7.7,10.047,7.7l1.358-1.95-7.341-7.839,4.791-6.935Z" transform="translate(-850.083 -644.285)" fill="#fcd8b1"/>
          <path id="Caminho_510" data-name="Caminho 510" d="M897.712,854.133c.31.3,1.626,1.625,1.626,2.032s-1.219.407-1.219.407l-3.454-2.255,1.829-3.027A9.161,9.161,0,0,0,897.712,854.133Z" transform="translate(-872.448 -735.384)" fill="#333"/>
          <path id="Caminho_511" data-name="Caminho 511" d="M894.66,856.181l-1.219.406,2.032,2.438H897.5l-1.626-1.625Z" transform="translate(-871.834 -737.838)" fill="#666"/>
          <path id="Caminho_512" data-name="Caminho 512" d="M893.647,649.041l-1.139,5.561s-4.55-1.9-4.956-1.9,0-6.908,0-6.908Z" transform="translate(-868.789 -632.291)" fill="#db9a34"/>
          <path id="Caminho_513" data-name="Caminho 513" d="M863.338,759.464s.689,15.138.689,16.357-.406,4.877-.812,8.127,1.625,20.319,1.625,20.319l2.438.406L869.31,780.7l4.063-20.319S867.118,749.2,863.338,759.464Z" transform="translate(-856.644 -687.143)" fill="#fcd8b1"/>
          <path id="Caminho_514" data-name="Caminho 514" d="M889.433,759.464s.69,15.138.69,16.357-.407,4.877-.813,8.127,1.625,19.1,1.625,19.1h2.438l2.032-22.351,4.063-20.319S893.213,749.2,889.433,759.464Z" transform="translate(-869.735 -687.143)" fill="#fcd8b1"/>
          <path id="Caminho_515" data-name="Caminho 515" d="M894.206,664.44c-5.536,3.31-10.607-5.036-10.407,9.642.092,6.78-.9,9.666.425,16.315a53.5,53.5,0,0,1,.813,18.287c-.406,3.251-2.032,11.378-2.032,11.378s-20.62-.771-20.725-2.032c-.406-4.877-.035-8.227-.813-12.6-.751-4.223-1.55-8.463-.406-12.6a63.3,63.3,0,0,1,3.251-8.127c2.222-5.341,1.063-14.306-1.016-19.7-.82-2.129-1.983-4.367-1.391-6.57.7-2.6,3.676-4.008,6.365-3.916s5.192,1.3,7.69,2.3,14.866,1.449,16.483,1.747S894.206,664.44,894.206,664.44Z" transform="translate(-855.303 -636.667)" fill="#666680"/>
          <path id="Caminho_516" data-name="Caminho 516" d="M861.466,738.6c.776,4.372.407,7.721.813,12.6.106,1.26,20.725,2.032,20.725,2.032s1.626-8.128,2.032-11.378a53.526,53.526,0,0,0-.813-18.287c-.17-.858-.325-1.654-.463-2.4a13.629,13.629,0,0,1-10.1,4.027c-4.511,0-8.448-1.837-10.554-4.567A35.6,35.6,0,0,0,861.06,726C859.914,730.131,860.715,734.373,861.466,738.6Z" transform="translate(-855.302 -669.83)" fill="#73be8e"/>
          <path id="Caminho_517" data-name="Caminho 517" d="M892.252,629.87c.157,1.761.581,1.31.737,3.071a40.418,40.418,0,0,1-.347,5.257,1.737,1.737,0,0,1-1.238,1.28,2.566,2.566,0,0,1-1.312-.221l-3.2-1.142a16.44,16.44,0,0,1-2.679-1.138,7.745,7.745,0,0,1-3.687-4.829,6.82,6.82,0,0,1,1.328-5.876,6.1,6.1,0,0,1,5.584-2.1,6.486,6.486,0,0,1,3.484,2.136A5.129,5.129,0,0,1,892.252,629.87Z" transform="translate(-865.26 -621.406)" fill="#fcd8b1"/>
          <path id="Caminho_518" data-name="Caminho 518" d="M881.288,624.287a14.524,14.524,0,0,1-1.158,1.027,5.023,5.023,0,0,0-1.015,3.332q-.165,2.9-.33,5.794a20.567,20.567,0,0,0,.138,5.135,33.458,33.458,0,0,0,1.825,5.182,9.583,9.583,0,0,1,.714,5.377,7.857,7.857,0,0,1-4.868,5.192,23.231,23.231,0,0,1-7.248,1.313,9.222,9.222,0,0,1-3.678-.228,7.2,7.2,0,0,1-3.77-3.807,15.916,15.916,0,0,1-.888-11.951c.909-2.774,2.6-5.32,2.949-8.218.189-1.55-.016-3.126.14-4.679a10.309,10.309,0,0,1,6.265-8.35,10.191,10.191,0,0,1,5.982-.452c1.573.349,3.675,1.114,4.618,2.513C881.516,622.287,881.992,623.4,881.288,624.287Z" transform="translate(-855.179 -618.702)" fill="#00142b"/>
          <path id="Caminho_519" data-name="Caminho 519" d="M893.467,858.341h.348c.2,0,.367-.238.367-.528l.475-3.278c0-.291-.165-.528-.367-.528h-1.3c-.2,0-.367.238-.367.528l.475,3.278C893.1,858.1,893.265,858.341,893.467,858.341Z" transform="translate(-871.425 -736.747)" fill="#333"/>
          <path id="Caminho_520" data-name="Caminho 520" d="M892.834,853.993l2.264-2.98c0-.619-.092-1.083-.655-1.083h-2.015c-.563,0-.618.464-.618,1.083C891.81,851.013,892.271,853.993,892.834,853.993Z" transform="translate(-871.016 -734.702)" fill="#333"/>
          <path id="Caminho_521" data-name="Caminho 521" d="M871.617,854.133c.31.3,1.626,1.625,1.626,2.032s-1.219.407-1.219.407l-3.454-2.255,1.829-3.027A9.161,9.161,0,0,0,871.617,854.133Z" transform="translate(-859.357 -735.384)" fill="#333"/>
          <path id="Caminho_522" data-name="Caminho 522" d="M868.565,856.181l-1.219.406,2.032,2.438h2.032l-1.625-1.625Z" transform="translate(-858.743 -737.838)" fill="#666"/>
          <path id="Caminho_523" data-name="Caminho 523" d="M867.372,858.341h.348c.2,0,.367-.238.367-.528l.475-3.278c0-.291-.165-.528-.367-.528h-1.3c-.2,0-.367.238-.367.528l.475,3.278C867.005,858.1,867.171,858.341,867.372,858.341Z" transform="translate(-858.334 -736.747)" fill="#333"/>
          <path id="Caminho_524" data-name="Caminho 524" d="M866.739,853.993l2.264-2.98c0-.619-.092-1.083-.655-1.083h-2.015c-.564,0-.618.464-.618,1.083C865.715,851.013,866.176,853.993,866.739,853.993Z" transform="translate(-857.925 -734.702)" fill="#333"/>
          <path id="Caminho_525" data-name="Caminho 525" d="M952.166,647.673l1.086-.767a8.181,8.181,0,0,1,1.111-1.653A20.537,20.537,0,0,1,956,643.882c.268-.081.448.162.167.686s-.392.993-.486,1.168,1.276-.477,1.454-.564a13.009,13.009,0,0,0,2.059-1.375.866.866,0,0,1,1.06.119,2.5,2.5,0,0,1,.123,1.665,7.259,7.259,0,0,1-2.078,2.47,14.584,14.584,0,0,1-2.878,1.164c-.443-.013-2.942-.024-2.942-.024S951.255,648.534,952.166,647.673Z" transform="translate(-901.125 -631.227)" fill="#fcd8b1"/>
        </g>
      </g>
      <g id="Grupo_287" data-name="Grupo 287">
        <g id="Grupo_286" data-name="Grupo 286">
          <path id="Caminho_526" data-name="Caminho 526" d="M799.054,708.713s-5.078-15.527-5.908-16.709-4.781-.9-5.4.881,5.678,16.974,5.678,16.974A5.482,5.482,0,0,0,799.054,708.713Z" transform="translate(-787.638 -651.851)" fill="#ccc"/>
          <path id="Caminho_527" data-name="Caminho 527" d="M827.779,733.119s2.85,30.543,2.577,31.557-6.155,6.683-8.259,1.037-5.73-32.181-5.73-32.181S824.1,734.665,827.779,733.119Z" transform="translate(-802.016 -672.835)" fill="#00142b"/>
          <path id="Caminho_528" data-name="Caminho 528" d="M801.723,723.333l.966,1.111a9.079,9.079,0,0,1,1.944,1.042,22.672,22.672,0,0,1,1.693,1.649c.119.287-.128.511-.737.26s-1.137-.323-1.34-.406.667,1.353.782,1.54a14.431,14.431,0,0,0,1.744,2.116.959.959,0,0,1-.014,1.182,2.775,2.775,0,0,1-1.821.319,8.041,8.041,0,0,1-2.951-2.016,16.1,16.1,0,0,1-1.6-3.043c-.035-.489-.3-3.244-.3-3.244S800.674,722.424,801.723,723.333Z" transform="translate(-793.85 -667.774)" fill="#fcd8b1"/>
          <path id="Caminho_529" data-name="Caminho 529" d="M880.04,716.975l1.705-.033a13.2,13.2,0,0,1,2.572-.948c.569-.011,2.457-.385,2.775-.279s.248.489-.5.841-1.3.766-1.548.883,1.6.408,1.842.444a16.636,16.636,0,0,0,3.159.02c.259-.044.954.318.839.882a4.311,4.311,0,0,1-1.476,1.841,10.967,10.967,0,0,1-4.219,1.118,16.217,16.217,0,0,1-3.693-.827c-.385-.329-2.619-2.123-2.619-2.123A1.367,1.367,0,0,1,880.04,716.975Z" transform="translate(-833.344 -664.095)" fill="#fcd8b1"/>
          <g id="Grupo_284" data-name="Grupo 284" transform="translate(24.539 118.574)">
            <path id="Caminho_530" data-name="Caminho 530" d="M838.016,850.791l.092,2.828,2.565.808.955-.835v-3.5Z" transform="translate(-837.416 -850.091)" fill="#dedee2"/>
            <path id="Caminho_531" data-name="Caminho 531" d="M837.184,857.982l-.32,1.616s-.32,1.212.641,1.616a20.881,20.881,0,0,0,4.489.4l6.733-.4s.32-1.616-.321-2.02-.641.4-.641.4Z" transform="translate(-836.812 -854.05)" fill="#999"/>
            <path id="Caminho_532" data-name="Caminho 532" d="M848.726,858.588l-6.733.4a20.906,20.906,0,0,1-4.489-.4c-.962-.4-.641-.808-.641-.808l.32-2.424s.112-.053.3-.13a1.9,1.9,0,0,0,1.622.937,1.965,1.965,0,0,0,1.914-1.806.6.6,0,0,1,.33.19c.641.808,6.413,2.424,6.413,2.424l.641.4A1.021,1.021,0,0,1,848.726,858.588Z" transform="translate(-836.812 -852.231)" fill="#113145"/>
          </g>
          <g id="Grupo_285" data-name="Grupo 285" transform="translate(4.865 117.637)">
            <path id="Caminho_533" data-name="Caminho 533" d="M798.539,848.911l.092,2.828,2.565.808.955-.834v-3.5Z" transform="translate(-797.938 -848.211)" fill="#dedee2"/>
            <path id="Caminho_534" data-name="Caminho 534" d="M797.706,856.1l-.32,1.616s-.321,1.213.641,1.617a20.909,20.909,0,0,0,4.489.4l6.733-.4s.32-1.617-.32-2.02-.641.4-.641.4Z" transform="translate(-797.334 -852.169)" fill="#999"/>
            <path id="Caminho_535" data-name="Caminho 535" d="M809.248,856.708l-6.733.4a20.879,20.879,0,0,1-4.489-.4c-.962-.4-.641-.808-.641-.808l.32-2.424s.113-.053.3-.13a1.9,1.9,0,0,0,1.622.938,1.966,1.966,0,0,0,1.914-1.806.6.6,0,0,1,.33.19c.641.808,6.413,2.424,6.413,2.424l.641.4A1.021,1.021,0,0,1,809.248,856.708Z" transform="translate(-797.334 -850.351)" fill="#113145"/>
          </g>
          <path id="Caminho_536" data-name="Caminho 536" d="M811.033,733.255s-4.381,33.381-4.846,34.323-8.951,2.424-8.666-3.594c1.112-23.453-.847-18.449-.294-26.732a28.574,28.574,0,0,1,1.421-6.6S808.843,733.735,811.033,733.255Z" transform="translate(-792.364 -671.598)" fill="#00142b"/>
          <path id="Caminho_537" data-name="Caminho 537" d="M806.14,798.4s-3.209,24.451-3.55,25.14-5.8,1.838-6.082-.429c-.538-4.381.56-26.618.56-26.618S804.536,798.755,806.14,798.4Z" transform="translate(-791.98 -704.63)" fill="#00142b"/>
          <path id="Caminho_538" data-name="Caminho 538" d="M836.555,793.7s2.222,28.155,2.01,28.894-5.622,3-6.061.664c-.817-4.337-3.5-27.61-3.5-27.61S835.039,794.337,836.555,793.7Z" transform="translate(-808.358 -703.229)" fill="#00142b"/>
          <path id="Caminho_539" data-name="Caminho 539" d="M790.56,661.161s-3.125,12.4-2.984,14.374,4.374,5.647,7.34-1.516a54.432,54.432,0,0,0,3.406-15.6S792.343,654.827,790.56,661.161Z" transform="translate(-787.571 -634.853)" fill="#ccc"/>
          <path id="Caminho_540" data-name="Caminho 540" d="M819.778,662.363s-1.042,16.992-2.093,21.194-1.059,11.725-1.059,11.725-3.151,2.1-9.455,2.452a16.727,16.727,0,0,1-10.156-2.452s-2.4-17.013-2.75-22.967-.859-14.3,2.811-14.989C798.164,657.123,812.774,656.76,819.778,662.363Z" transform="translate(-790.807 -634.766)" fill="#e6e6e6"/>
          <path id="Caminho_541" data-name="Caminho 541" d="M817.316,650.179a1.931,1.931,0,0,1-1.983,2.293l-3.593.82a2.853,2.853,0,0,1-1.434.077,1.949,1.949,0,0,1-1.193-2.033,5.7,5.7,0,0,1,.9-2.357l1.1-1.94a5.193,5.193,0,0,1,.449-.7,3.47,3.47,0,0,1,2.864-1.116c.91.04,2.52.208,2.863,1.115C817.661,647.316,817.311,649.126,817.316,650.179Z" transform="translate(-798.375 -628.74)" fill="#e3c859"/>
          <path id="Caminho_542" data-name="Caminho 542" d="M819.435,627.989c.445,3.4-1.63,8.407-2.1,8.682-1.3.761-3.053.453-4.51.08a16.375,16.375,0,0,1-4.95-2.859c-1.977-1.669-2.508-3.212-3-5.753a7.86,7.86,0,0,1,2.1-7.136,8.167,8.167,0,0,1,4.185-1.984,7.966,7.966,0,0,1,4.933.589,5.686,5.686,0,0,1,3.035,4.319C819.589,626.148,819.052,625.057,819.435,627.989Z" transform="translate(-796.179 -615.523)" fill="#fcd8b1"/>
          <path id="Caminho_543" data-name="Caminho 543" d="M806.558,633.493c-1.3-.161-1.938-1.318-2.986-2.1a6.6,6.6,0,0,1-2-3.3c-.475-1.375-.005-3.067-.423-4.46-.643-2.145-1.5-4.2-.414-6.16.674-1.22,2.293-1.481,3.467-2.233,1.411-.9,1.795-2.429,3.4-2.929,1.8-.561,3.178.671,5.058.665,1.049,0,2.688-1.233,3.591-.7a3.747,3.747,0,0,1,1.441,1.7c.847,1.861.021,3.135-1.412,4.594-3.915.676.746,9.988-4.642,13.637A6.7,6.7,0,0,1,806.558,633.493Z" transform="translate(-793.916 -612.148)" fill="#00142b"/>
          <path id="Caminho_544" data-name="Caminho 544" d="M840.605,666.192c3.85,2.829,6.842,14.023,7.529,17.563s1.474,5.639.707,6.862-4.112,2.147-6.687-2.377-5.049-10.49-5.273-10.931S833.739,661.147,840.605,666.192Z" transform="translate(-811.904 -638.76)" fill="#d9d9d9"/>
          <path id="Caminho_545" data-name="Caminho 545" d="M868.5,712s-12.16-5.922-14.033-5.232-5.35,2.012-4.212,3.974,17.529,6.179,17.529,6.179S869.981,716.416,868.5,712Z" transform="translate(-818.906 -659.588)" fill="#d9d9d9"/>
          <path id="Caminho_546" data-name="Caminho 546" d="M816.1,655.068l1.874,2.342s-5.152,2.342-7.494,1.874-3.747-3.279-3.747-3.279l1.405-1.405a5.271,5.271,0,0,0,2.342,1.874C811.881,656.942,814.691,656.005,816.1,655.068Z" transform="translate(-797.181 -633.445)" fill="#ccc"/>
        </g>
      </g>
    </g>
    <g id="Grupo_293" data-name="Grupo 293" transform="translate(1035.225 218.926)">
      <g id="Grupo_291" data-name="Grupo 291">
        <g id="Grupo_290" data-name="Grupo 290">
          <g id="Grupo_289" data-name="Grupo 289">
            <path id="Caminho_547" data-name="Caminho 547" d="M1378.165,249.72l-40.292.206-5.906,4.888.4-4.86-2.847.014a2.138,2.138,0,0,1-2.234-2.024l-.157-26.723a2.132,2.132,0,0,1,2.21-2.047l48.641-.249a2.137,2.137,0,0,1,2.234,2.024l.157,26.723A2.133,2.133,0,0,1,1378.165,249.72Z" transform="translate(-1327.133 -218.926)" fill="#003e96"/>
          </g>
        </g>
      </g>
      <g id="Grupo_292" data-name="Grupo 292" transform="translate(16.208 12.604)">
        <circle id="Elipse_30" data-name="Elipse 30" cx="2.552" cy="2.552" r="2.552" fill="#fff"/>
        <path id="Caminho_548" data-name="Caminho 548" d="M1380.549,247.05a2.552,2.552,0,1,1-2.513-2.59A2.552,2.552,0,0,1,1380.549,247.05Z" transform="translate(-1367.578 -244.34)" fill="#fff"/>
        <path id="Caminho_549" data-name="Caminho 549" d="M1396.338,247.29a2.552,2.552,0,1,1-2.513-2.591A2.552,2.552,0,0,1,1396.338,247.29Z" transform="translate(-1375.498 -244.46)" fill="#fff"/>
      </g>
    </g>
    <g id="Grupo_318" data-name="Grupo 318" transform="translate(944.643 421.147)">
      <g id="Grupo_295" data-name="Grupo 295" transform="translate(10.749 20.329)">
        <g id="Grupo_294" data-name="Grupo 294">
          <path id="Caminho_550" data-name="Caminho 550" d="M1166.93,665.737l.211.729a7.547,7.547,0,0,0,4.576-.213l.125-.737A6.627,6.627,0,0,1,1166.93,665.737Z" transform="translate(-1166.93 -665.516)" fill="#f8c30d"/>
        </g>
      </g>
      <g id="Grupo_297" data-name="Grupo 297" transform="translate(6.619 5.501)">
        <g id="Grupo_296" data-name="Grupo 296">
          <path id="Caminho_551" data-name="Caminho 551" d="M1170.325,639.032a5.877,5.877,0,0,0-5.682-3.264v-.008c-.033,0-.058.008-.091.008s-.053,0-.087,0v.012c-.033,0-.074.008-.111.008a5.867,5.867,0,0,0-5.252,3.755,6.492,6.492,0,0,0,.491,5.814,28.187,28.187,0,0,1,1.531,2.558,12.4,12.4,0,0,0,1.807,2.731s.042.054.058.058a7.167,7.167,0,0,0,1.25.219c.008,0,.016,0,.025,0a7.01,7.01,0,0,0,.974.016,7.7,7.7,0,0,0,.978-.107,7.306,7.306,0,0,0,1.246-.334c.021,0,.07-.082.07-.082a12.692,12.692,0,0,0,1.531-2.864,29.581,29.581,0,0,1,1.3-2.686A6.472,6.472,0,0,0,1170.325,639.032Zm-7.852-.821a3.251,3.251,0,0,1-.495,1.2,3.524,3.524,0,0,1-.747.842,1.245,1.245,0,0,1-.714.309.465.465,0,0,1-.26-.07c-.4-.26-.281-1.143.28-2.01a2.538,2.538,0,0,1,1.316-1.139.517.517,0,0,1,.4.058C1162.457,637.534,1162.535,637.818,1162.473,638.211Z" transform="translate(-1158.643 -635.76)" fill="#f8c30d"/>
        </g>
      </g>
      <g id="Grupo_299" data-name="Grupo 299" transform="translate(11.017 21.304)">
        <g id="Grupo_298" data-name="Grupo 298">
          <path id="Caminho_552" data-name="Caminho 552" d="M1167.469,667.685l.211.731a6.321,6.321,0,0,0,4.141-.207h0l.113-.736A5.573,5.573,0,0,1,1167.469,667.685Z" transform="translate(-1167.469 -667.473)" fill="#f8c30d"/>
        </g>
      </g>
      <g id="Grupo_301" data-name="Grupo 301" transform="translate(11.277 22.279)">
        <g id="Grupo_300" data-name="Grupo 300">
          <path id="Caminho_553" data-name="Caminho 553" d="M1167.991,669.645l.212.733a5.331,5.331,0,0,0,3.648-.182l.172-.766A4.7,4.7,0,0,1,1167.991,669.645Z" transform="translate(-1167.991 -669.43)" fill="#f8c30d"/>
        </g>
      </g>
      <g id="Grupo_303" data-name="Grupo 303" transform="translate(11.566 23.255)">
        <g id="Grupo_302" data-name="Grupo 302">
          <path id="Caminho_554" data-name="Caminho 554" d="M1168.571,671.571l.216.746a4.108,4.108,0,0,0,3.177-.163h0l.148-.766A3.634,3.634,0,0,1,1168.571,671.571Z" transform="translate(-1168.571 -671.388)" fill="#f8c30d"/>
        </g>
      </g>
      <g id="Grupo_305" data-name="Grupo 305" transform="translate(11.911 0)">
        <g id="Grupo_304" data-name="Grupo 304" transform="translate(0)">
          <rect id="Retângulo_75" data-name="Retângulo 75" width="0.742" height="3.103" transform="translate(0 0.034) rotate(-2.624)" fill="#f8c30d"/>
        </g>
      </g>
      <g id="Grupo_307" data-name="Grupo 307" transform="translate(2.834 18.794)">
        <g id="Grupo_306" data-name="Grupo 306" transform="translate(0 0)">
          <rect id="Retângulo_76" data-name="Retângulo 76" width="3.102" height="0.742" transform="matrix(0.756, -0.654, 0.654, 0.756, 0, 2.03)" fill="#f8c30d"/>
        </g>
      </g>
      <g id="Grupo_309" data-name="Grupo 309" transform="translate(0 12.73)">
        <g id="Grupo_308" data-name="Grupo 308" transform="translate(0 0)">
          <rect id="Retângulo_77" data-name="Retângulo 77" width="3.102" height="0.742" transform="translate(0 0.119) rotate(-2.207)" fill="#f8c30d"/>
        </g>
      </g>
      <g id="Grupo_311" data-name="Grupo 311" transform="translate(2.323 4.851)">
        <g id="Grupo_310" data-name="Grupo 310" transform="translate(0 0)">
          <rect id="Retângulo_78" data-name="Retângulo 78" width="0.743" height="3.102" transform="translate(0 0.597) rotate(-53.576)" fill="#f8c30d"/>
        </g>
      </g>
      <g id="Grupo_313" data-name="Grupo 313" transform="translate(19.811 18.114)">
        <g id="Grupo_312" data-name="Grupo 312" transform="translate(0 0)">
          <rect id="Retângulo_79" data-name="Retângulo 79" width="0.742" height="3.102" transform="translate(0 0.603) rotate(-54.345)" fill="#f8c30d"/>
        </g>
      </g>
      <g id="Grupo_315" data-name="Grupo 315" transform="translate(21.769 11.726)">
        <g id="Grupo_314" data-name="Grupo 314" transform="translate(0 0)">
          <rect id="Retângulo_80" data-name="Retângulo 80" width="3.102" height="0.743" transform="translate(0 0.161) rotate(-2.971)" fill="#f8c30d"/>
        </g>
      </g>
      <g id="Grupo_317" data-name="Grupo 317" transform="translate(19.073 4.011)">
        <g id="Grupo_316" data-name="Grupo 316" transform="translate(0 0)">
          <rect id="Retângulo_81" data-name="Retângulo 81" width="3.102" height="0.742" transform="translate(0 2.055) rotate(-41.49)" fill="#f8c30d"/>
        </g>
      </g>
    </g>
    <g id="Grupo_321" data-name="Grupo 321" transform="translate(1076.962 296.649)">
      <g id="Grupo_320" data-name="Grupo 320" transform="translate(0 0)">
        <g id="Grupo_319" data-name="Grupo 319">
          <path id="Caminho_555" data-name="Caminho 555" d="M1435.105,389.508l-19.123.1-2.8,2.32.192-2.307-1.352.007a1.014,1.014,0,0,1-1.06-.961l-.075-12.682a1.012,1.012,0,0,1,1.049-.972l23.084-.118a1.014,1.014,0,0,1,1.06.96l.075,12.682A1.012,1.012,0,0,1,1435.105,389.508Z" transform="translate(-1410.886 -374.893)" fill="#003e96"/>
        </g>
      </g>
    </g>
  </g>
</svg>
