<svg xmlns="http://www.w3.org/2000/svg" width="514.977" height="337.267" viewBox="0 0 514.977 337.267">
  <g id="Grupo_194" data-name="Grupo 194" transform="translate(-533.305 -1097.855)">
    <g id="Grupo_167" data-name="Grupo 167" transform="translate(533.805 1098.355)">
      <path id="Caminho_250" data-name="Caminho 250" d="M1340.139,1137.479a64.18,64.18,0,0,1,10.349.863l.906-7.87a52.2,52.2,0,0,0-13.13-1.531c-16.667,0-20.807,7.784-20.807,25.636,0,17.831,4.118,25.635,20.807,25.635a52.461,52.461,0,0,0,13.13-1.509l-.927-7.892a63.7,63.7,0,0,1-10.328.862c-12.117,0-12.29-7.18-12.29-17.1,0-9.875.216-17.1,12.29-17.1" transform="translate(-882.626 -1111.969)" fill="#eff5f9"/>
      <path id="Caminho_251" data-name="Caminho 251" d="M1037.163,1218.567a42.952,42.952,0,0,1,6.917.576l.6-5.26a34.9,34.9,0,0,0-8.776-1.023c-11.139,0-13.906,5.2-13.906,17.134s2.752,17.134,13.906,17.134a35.053,35.053,0,0,0,8.776-1.009l-.619-5.274a42.634,42.634,0,0,1-6.9.576c-8.1,0-8.215-4.8-8.215-11.427,0-6.6.145-11.428,8.215-11.428" transform="translate(-751.113 -1149.323)" fill="none" stroke="#eff5f9" stroke-width="1"/>
      <path id="Caminho_252" data-name="Caminho 252" d="M548.965,1468.773a42.939,42.939,0,0,1,6.917.577l.6-5.26a34.892,34.892,0,0,0-8.776-1.023c-11.139,0-13.906,5.2-13.906,17.134s2.752,17.134,13.906,17.134a35.046,35.046,0,0,0,8.776-1.009l-.619-5.274a42.643,42.643,0,0,1-6.9.576c-8.1,0-8.214-4.8-8.214-11.428,0-6.6.144-11.428,8.214-11.428" transform="translate(-533.805 -1260.696)" fill="none" stroke="#eff5f9" stroke-width="1"/>
      <path id="Caminho_253" data-name="Caminho 253" d="M843.076,1105.45a53.339,53.339,0,0,1,8.6.717l.753-6.54a43.377,43.377,0,0,0-10.912-1.272c-13.85,0-17.291,6.468-17.291,21.3,0,14.818,3.422,21.3,17.291,21.3a43.586,43.586,0,0,0,10.912-1.254l-.771-6.557a52.988,52.988,0,0,1-8.582.716c-10.069,0-10.213-5.966-10.213-14.208,0-8.207.179-14.209,10.213-14.209" transform="translate(-663.078 -1098.355)" fill="none" stroke="#eff5f9" stroke-width="1"/>
      <path id="Caminho_254" data-name="Caminho 254" d="M1378.8,1603.755a40.628,40.628,0,0,1,6.553.547l.574-4.983a33.053,33.053,0,0,0-8.315-.969c-10.553,0-13.174,4.928-13.174,16.233s2.607,16.233,13.174,16.233a33.238,33.238,0,0,0,8.315-.955l-.587-5a40.449,40.449,0,0,1-6.54.546c-7.673,0-7.782-4.546-7.782-10.826,0-6.253.136-10.827,7.782-10.827" transform="translate(-903.538 -1320.913)" fill="none" stroke="#eff5f9" stroke-width="1"/>
      <path id="Caminho_255" data-name="Caminho 255" d="M662.818,1231.6a76.529,76.529,0,0,1,12.34,1.029l1.08-9.384a62.225,62.225,0,0,0-15.656-1.826c-19.873,0-24.809,9.281-24.809,30.568,0,21.261,4.91,30.568,24.809,30.568a62.552,62.552,0,0,0,15.656-1.8l-1.1-9.409a76.077,76.077,0,0,1-12.315,1.027c-14.448,0-14.654-8.56-14.654-20.387,0-11.775.257-20.387,14.654-20.387" transform="translate(-579.193 -1153.132)" fill="#eff5f9"/>
      <path id="Caminho_256" data-name="Caminho 256" d="M576.246,1597.036a17.767,17.767,0,0,1,2.907.246l.255-2.245a14.441,14.441,0,0,0-3.689-.437c-4.682,0-5.844,2.22-5.844,7.313s1.157,7.313,5.844,7.313a14.511,14.511,0,0,0,3.689-.43l-.26-2.251a17.674,17.674,0,0,1-2.9.246c-3.4,0-3.453-2.049-3.453-4.878s.061-4.878,3.453-4.878" transform="translate(-549.86 -1319.245)" fill="#eff5f9"/>
      <path id="Caminho_257" data-name="Caminho 257" d="M1107.73,1123a23.429,23.429,0,0,1,3.779.315l.331-2.874a19.077,19.077,0,0,0-4.794-.559c-6.086,0-7.6,2.842-7.6,9.361s1.5,9.36,7.6,9.36a19.136,19.136,0,0,0,4.794-.551l-.338-2.881a23.311,23.311,0,0,1-3.771.315c-4.425,0-4.487-2.622-4.487-6.243,0-3.606.079-6.244,4.487-6.244" transform="translate(-785.585 -1107.936)" fill="#eff5f9"/>
      <path id="Caminho_258" data-name="Caminho 258" d="M1420.157,1425.9a48.531,48.531,0,0,1,7.824.652l.684-5.949a39.44,39.44,0,0,0-9.926-1.157c-12.6,0-15.729,5.884-15.729,19.381,0,13.479,3.113,19.379,15.729,19.379a39.645,39.645,0,0,0,9.926-1.141l-.7-5.966a48.183,48.183,0,0,1-7.808.652c-9.16,0-9.291-5.428-9.291-12.925,0-7.466.164-12.927,9.291-12.927" transform="translate(-920.707 -1241.279)" fill="#eff5f9"/>
    </g>
    <g id="Grupo_193" data-name="Grupo 193" transform="translate(565.928 1150.941)">
      <g id="Grupo_168" data-name="Grupo 168" transform="translate(314.567 8.376)">
        <path id="Caminho_259" data-name="Caminho 259" d="M1213.984,1376.966a.55.55,0,0,1-.109-.04.58.58,0,0,1-.266-.776c36.806-75.145,67.637-127.4,86.813-147.135.426-.438.733-.755.858-.92a.58.58,0,1,1,.926.7,13.935,13.935,0,0,1-.952,1.029c-19.093,19.651-49.849,71.8-86.6,146.837A.58.58,0,0,1,1213.984,1376.966Z" transform="translate(-1183.064 -1216.964)" fill="#e3ffe8"/>
        <path id="Caminho_260" data-name="Caminho 260" d="M1380.409,1217.986c-2.249,2.2-12.247,5.268-12.875,4.626s2.662-10.57,4.911-12.769a5.695,5.695,0,0,1,7.964,8.142Z" transform="translate(-1251.571 -1208.22)" fill="#e3ffe8"/>
        <path id="Caminho_261" data-name="Caminho 261" d="M1347.073,1230.151c.412,3.191-3.238,13.249-4.149,13.367s-7-8.684-7.407-11.875a5.826,5.826,0,1,1,11.556-1.492Z" transform="translate(-1237.333 -1215.721)" fill="#e3ffe8"/>
        <path id="Caminho_262" data-name="Caminho 262" d="M1361.147,1260.892c-3.2-.317-12.179-6.138-12.089-7.052s10.036-4.86,13.238-4.543a5.826,5.826,0,1,1-1.149,11.6Z" transform="translate(-1243.382 -1226.496)" fill="#e3ffe8"/>
        <path id="Caminho_263" data-name="Caminho 263" d="M1276.411,1314.592c1.265,5.251-3.006,22.7-4.505,23.056s-13.245-13.225-14.509-18.476a9.779,9.779,0,0,1,19.014-4.58Z" transform="translate(-1202.459 -1252.234)" fill="#e3ffe8"/>
        <path id="Caminho_264" data-name="Caminho 264" d="M1305.324,1362.339c-5.4.051-21.436-8.04-21.449-9.581s15.868-9.926,21.268-9.976a9.779,9.779,0,0,1,.181,19.557Z" transform="translate(-1214.367 -1268.116)" fill="#e3ffe8"/>
        <path id="Caminho_265" data-name="Caminho 265" d="M1242.831,1346.761c2.924,5.928,2.525,27.9.833,28.737s-19.373-12.22-22.3-18.147a11.967,11.967,0,0,1,21.464-10.59Z" transform="translate(-1185.992 -1266.917)" fill="#e3ffe8"/>
        <path id="Caminho_266" data-name="Caminho 266" d="M1285.91,1408.917c-6.58-.619-25.08-12.485-24.9-14.363s20.565-10.085,27.145-9.466a11.967,11.967,0,1,1-2.242,23.829Z" transform="translate(-1204.188 -1286.933)" fill="#e3ffe8"/>
        <path id="Caminho_267" data-name="Caminho 267" d="M1219.717,1390.678c2.924,5.928,2.524,27.9.833,28.737s-19.373-12.22-22.3-18.147a11.967,11.967,0,0,1,21.464-10.589Z" transform="translate(-1175.704 -1286.465)" fill="#e3ffe8"/>
        <path id="Caminho_268" data-name="Caminho 268" d="M1262.8,1452.834c-6.58-.619-25.08-12.485-24.9-14.363s20.565-10.085,27.145-9.466a11.967,11.967,0,1,1-2.242,23.829Z" transform="translate(-1193.9 -1306.482)" fill="#e3ffe8"/>
        <path id="Caminho_269" data-name="Caminho 269" d="M1178.482,1446.442c4.961,4.366,12.962,24.837,11.716,26.253s-22.567-3.92-27.529-8.287a11.967,11.967,0,0,1,15.813-17.967Z" transform="translate(-1158.608 -1312.93)" fill="#e3ffe8"/>
        <path id="Caminho_270" data-name="Caminho 270" d="M1240.269,1496.485c-6.606.208-26.444-9.251-26.5-11.137s19.143-12.577,25.749-12.785a11.967,11.967,0,0,1,.755,23.922Z" transform="translate(-1183.16 -1325.882)" fill="#e3ffe8"/>
        <path id="Caminho_271" data-name="Caminho 271" d="M1326.985,1257c.418,3.243-3.29,13.461-4.215,13.581s-7.108-8.823-7.526-12.065a5.919,5.919,0,1,1,11.741-1.516Z" transform="translate(-1228.308 -1227.637)" fill="#e3ffe8"/>
        <path id="Caminho_272" data-name="Caminho 272" d="M1340.475,1288.466c-3.253-.323-12.375-6.237-12.283-7.165s10.2-4.938,13.45-4.616a5.92,5.92,0,1,1-1.167,11.781Z" transform="translate(-1234.093 -1238.687)" fill="#e3ffe8"/>
        <path id="Caminho_273" data-name="Caminho 273" d="M1301.372,1280.274c.97,4.542-3.09,19.444-4.386,19.72s-11.091-11.664-12.062-16.206a8.41,8.41,0,0,1,16.448-3.515Z" transform="translate(-1214.751 -1237.331)" fill="#e3ffe8"/>
        <path id="Caminho_274" data-name="Caminho 274" d="M1324.175,1325.078c-4.622-.458-17.581-8.86-17.45-10.179s14.486-7.016,19.108-6.558a8.41,8.41,0,1,1-1.658,16.737Z" transform="translate(-1224.538 -1252.775)" fill="#e3ffe8"/>
      </g>
      <g id="Grupo_169" data-name="Grupo 169" transform="translate(10.024 230.45)">
        <path id="Caminho_275" data-name="Caminho 275" d="M1002.446,1635.307c0-14.837-87.905-26.865-196.342-26.865s-196.342,12.028-196.342,26.865,87.905,26.865,196.342,26.865S1002.446,1650.145,1002.446,1635.307Z" transform="translate(-609.762 -1608.442)" fill="#b8d0fc"/>
      </g>
      <g id="Grupo_170" data-name="Grupo 170" transform="translate(362.76 104.756)">
        <path id="Caminho_276" data-name="Caminho 276" d="M1252.664,1507.5s-44.2-69.382,86.4-124.726C1339.067,1382.77,1341.941,1528.838,1252.664,1507.5Z" transform="translate(-1245.462 -1382.296)" fill="#7798f8"/>
        <path id="Caminho_277" data-name="Caminho 277" d="M1339.355,1382.345l-90.54,115.382C1241.942,1476.962,1237.738,1425.405,1339.355,1382.345Z" transform="translate(-1245.59 -1382.107)" fill="#89b4fd"/>
        <path id="Caminho_278" data-name="Caminho 278" d="M1257.98,1492.9a.239.239,0,0,1-.2-.386l86.718-110.51a.239.239,0,0,1,.377.3l-86.718,110.511A.238.238,0,0,1,1257.98,1492.9Z" transform="translate(-1250.924 -1381.916)" fill="#b8e1ff"/>
        <path id="Caminho_279" data-name="Caminho 279" d="M1332.676,1481.051a.239.239,0,0,1-.049-.474l38.455-6.62a.234.234,0,0,1,.275.194.239.239,0,0,1-.194.276l-38.455,6.62A.153.153,0,0,1,1332.676,1481.051Z" transform="translate(-1284.173 -1422.883)" fill="#b8e1ff"/>
      </g>
      <g id="Grupo_171" data-name="Grupo 171" transform="translate(367.925 185.484)">
        <path id="Caminho_280" data-name="Caminho 280" d="M1254.771,1571.679s5.312-65.063,114.428-37.448C1369.2,1534.231,1300.993,1627.974,1254.771,1571.679Z" transform="translate(-1254.771 -1527.403)" fill="#89b4fd"/>
        <path id="Caminho_281" data-name="Caminho 281" d="M1369.2,1539.709l-114.428,37.448S1290.544,1637.548,1369.2,1539.709Z" transform="translate(-1254.771 -1532.88)" fill="#7798f8"/>
        <path id="Caminho_282" data-name="Caminho 282" d="M1386.213,1575.024a.337.337,0,0,1-.049,0l-27.521-3.8a.381.381,0,0,1,.1-.755l27.521,3.8a.38.38,0,0,1-.056.757Z" transform="translate(-1300.86 -1546.569)" fill="#b8e1ff"/>
        <path id="Caminho_283" data-name="Caminho 283" d="M1312.252,1608.713a.389.389,0,0,1-.086-.011l-35.732-8.658a.381.381,0,1,1,.18-.74l35.732,8.658a.381.381,0,0,1-.094.751Z" transform="translate(-1264.284 -1559.402)" fill="#b8e1ff"/>
      </g>
      <g id="Grupo_172" data-name="Grupo 172" transform="translate(80.324 167.153)">
        <path id="Caminho_284" data-name="Caminho 284" d="M776.215,1562.327s25.6-33.877-39.318-67.729C736.9,1494.6,729.4,1569.631,776.215,1562.327Z" transform="translate(-736.457 -1494.47)" fill="#7798f8"/>
        <path id="Caminho_285" data-name="Caminho 285" d="M737.12,1494.367l41.832,63.092C783.342,1547.059,787.629,1520.706,737.12,1494.367Z" transform="translate(-736.752 -1494.367)" fill="#89b4fd"/>
      </g>
      <g id="Grupo_173" data-name="Grupo 173" transform="translate(57.789 202.382)">
        <path id="Caminho_286" data-name="Caminho 286" d="M763.432,1594.594s3.95-41.408-67.589-36.3C695.843,1558.294,728.136,1624.733,763.432,1594.594Z" transform="translate(-695.843 -1557.858)" fill="#89b4fd"/>
        <path id="Caminho_287" data-name="Caminho 287" d="M695.843,1558.645l67.589,36.3S734.232,1628.822,695.843,1558.645Z" transform="translate(-695.843 -1558.208)" fill="#7798f8"/>
        <path id="Caminho_288" data-name="Caminho 288" d="M724.189,1588.573l.031,0,17.689.7a.243.243,0,0,0,.019-.485l-17.689-.7a.243.243,0,0,0-.051.482Z" transform="translate(-708.37 -1571.315)" fill="#89b4fd"/>
        <path id="Caminho_289" data-name="Caminho 289" d="M762.246,1618.542a.267.267,0,0,0,.055,0l23.383-1.432a.243.243,0,1,0-.03-.484l-23.383,1.432a.243.243,0,0,0-.026.482Z" transform="translate(-725.31 -1584.018)" fill="#89b4fd"/>
      </g>
      <g id="Grupo_174" data-name="Grupo 174" transform="translate(75.635)">
        <path id="Caminho_290" data-name="Caminho 290" d="M827.956,1329.966a.5.5,0,0,0,.09-.04.489.489,0,0,0,.182-.667c-34.971-61.314-63.7-103.672-80.889-119.271-.382-.346-.657-.6-.771-.729a.489.489,0,0,0-.743.637,11.734,11.734,0,0,0,.856.816c17.116,15.533,45.775,57.806,80.7,119.031A.49.49,0,0,0,827.956,1329.966Z" transform="translate(-735.886 -1200.231)" fill="#e3ffe8"/>
        <path id="Caminho_291" data-name="Caminho 291" d="M729.674,1201.567c2.009,1.732,10.59,3.786,11.084,3.212s-2.8-8.757-4.811-10.49a4.8,4.8,0,1,0-6.273,7.277Z" transform="translate(-728.007 -1193.125)" fill="#e3ffe8"/>
        <path id="Caminho_292" data-name="Caminho 292" d="M760.429,1209.908c-.178,2.708,3.428,10.983,4.2,11.034s5.429-7.682,5.607-10.391a4.915,4.915,0,0,0-9.808-.643Z" transform="translate(-742.436 -1198.551)" fill="#e3ffe8"/>
        <path id="Caminho_293" data-name="Caminho 293" d="M745.586,1236.833c2.679-.437,9.929-5.813,9.8-6.579s-8.707-3.56-11.386-3.123a4.915,4.915,0,0,0,1.582,9.7Z" transform="translate(-733.292 -1208.241)" fill="#e3ffe8"/>
        <path id="Caminho_294" data-name="Caminho 294" d="M819.241,1277.416c-.786,4.488,3.734,18.948,5.016,19.173s10.449-11.837,11.236-16.324a8.249,8.249,0,0,0-16.251-2.848Z" transform="translate(-768.576 -1227.606)" fill="#e3ffe8"/>
        <path id="Caminho_295" data-name="Caminho 295" d="M789.585,1319.643c4.549-.244,17.62-7.9,17.55-9.2s-13.886-7.517-18.435-7.272a8.249,8.249,0,1,0,.885,16.475Z" transform="translate(-751.547 -1242.105)" fill="#e3ffe8"/>
        <path id="Caminho_296" data-name="Caminho 296" d="M846.091,1302.809c-2.147,5.145-.646,23.624.823,24.238s15.662-11.315,17.81-16.461a10.1,10.1,0,0,0-18.633-7.777Z" transform="translate(-780.091 -1239.184)" fill="#e3ffe8"/>
        <path id="Caminho_297" data-name="Caminho 297" d="M803.858,1358.036c5.507-.87,20.453-11.842,20.2-13.413s-17.848-7.4-23.355-6.53a10.1,10.1,0,0,0,3.151,19.944Z" transform="translate(-756.574 -1257.614)" fill="#e3ffe8"/>
        <path id="Caminho_298" data-name="Caminho 298" d="M867.879,1338.558c-2.148,5.145-.646,23.624.822,24.237s15.662-11.315,17.81-16.46a10.1,10.1,0,1,0-18.632-7.777Z" transform="translate(-789.789 -1255.096)" fill="#e3ffe8"/>
        <path id="Caminho_299" data-name="Caminho 299" d="M825.646,1393.784c5.507-.87,20.453-11.841,20.2-13.413s-17.849-7.4-23.356-6.53a10.1,10.1,0,1,0,3.151,19.943Z" transform="translate(-766.272 -1273.526)" fill="#e3ffe8"/>
        <path id="Caminho_300" data-name="Caminho 300" d="M901.253,1383.319c-3.946,3.939-9.6,21.6-8.471,22.723s18.792-4.5,22.737-8.436a10.095,10.095,0,1,0-14.265-14.287Z" transform="translate(-801.287 -1276.471)" fill="#e3ffe8"/>
        <path id="Caminho_301" data-name="Caminho 301" d="M846.861,1429.33c5.573-.175,21.773-9.191,21.723-10.781s-16.783-9.574-22.356-9.4a10.095,10.095,0,1,0,.633,20.18Z" transform="translate(-776.277 -1289.281)" fill="#e3ffe8"/>
        <path id="Caminho_302" data-name="Caminho 302" d="M778.642,1231.454c-.181,2.752,3.483,11.159,4.269,11.21s5.516-7.8,5.7-10.557a4.994,4.994,0,0,0-9.966-.654Z" transform="translate(-750.542 -1208.109)" fill="#e3ffe8"/>
        <path id="Caminho_303" data-name="Caminho 303" d="M764.257,1258.96c2.722-.443,10.088-5.907,9.961-6.683s-8.847-3.617-11.569-3.173a4.994,4.994,0,1,0,1.608,9.857Z" transform="translate(-741.561 -1218.021)" fill="#e3ffe8"/>
        <path id="Caminho_304" data-name="Caminho 304" d="M798.194,1249.791c-.577,3.876,3.632,16.206,4.738,16.37s8.719-10.408,9.3-14.284a7.094,7.094,0,0,0-14.034-2.087Z" transform="translate(-759.225 -1215.654)" fill="#e3ffe8"/>
        <path id="Caminho_305" data-name="Caminho 305" d="M774.685,1289.151c3.867-.63,14.331-8.392,14.152-9.5s-12.568-5.138-16.435-4.508a7.094,7.094,0,0,0,2.283,14Z" transform="translate(-745.118 -1229.605)" fill="#e3ffe8"/>
      </g>
      <g id="Grupo_183" data-name="Grupo 183" transform="translate(101.9 29.408)">
        <path id="Caminho_306" data-name="Caminho 306" d="M856.984,1270.9H999.229l-81.643,82.485H775.34Z" transform="translate(-775.34 -1257.151)" fill="#00203f"/>
        <path id="Caminho_307" data-name="Caminho 307" d="M877.431,1285.384l-73.607,74.448V1483.56h271.023V1351.7Z" transform="translate(-788.019 -1263.599)" fill="#003e96"/>
        <rect id="Retângulo_40" data-name="Retângulo 40" width="123.728" height="128.871" transform="translate(163.1 91.089)" fill="#003e96"/>
        <path id="Caminho_308" data-name="Caminho 308" d="M1064.386,1270.9H922.141l81.643,82.485h142.245Z" transform="translate(-840.685 -1257.151)" fill="#00142b"/>
        <g id="Grupo_176" data-name="Grupo 176" transform="translate(75.756 51.391)">
          <g id="Grupo_175" data-name="Grupo 175">
            <rect id="Retângulo_41" data-name="Retângulo 41" width="17.093" height="35.122" transform="translate(1.364 1.364)" fill="#fff"/>
            <path id="Caminho_309" data-name="Caminho 309" d="M931.687,1376.589h-19.82V1338.74h19.82Zm-17.092-2.727h14.365v-32.395H914.594Z" transform="translate(-911.867 -1338.74)" fill="#00203f"/>
          </g>
          <rect id="Retângulo_42" data-name="Retângulo 42" width="1.656" height="34.613" transform="translate(9.109 1.873)" fill="#00203f"/>
          <rect id="Retângulo_43" data-name="Retângulo 43" width="1.656" height="18.054" transform="translate(19.204 18.097) rotate(90)" fill="#00203f"/>
        </g>
        <g id="Grupo_178" data-name="Grupo 178" transform="translate(15.805 112.825)">
          <g id="Grupo_177" data-name="Grupo 177" transform="translate(6.024)">
            <path id="Retângulo_44" data-name="Retângulo 44" d="M0,0H29.927a0,0,0,0,1,0,0V46.529A14.963,14.963,0,0,1,14.963,61.492h0A14.963,14.963,0,0,1,0,46.529V0A0,0,0,0,1,0,0Z" transform="translate(31.29 62.856) rotate(-180)" fill="#fff"/>
            <path id="Caminho_310" data-name="Caminho 310" d="M847.335,1513.676H814.681v-49.765a14.471,14.471,0,0,1,14.455-14.455h3.745a14.471,14.471,0,0,1,14.455,14.455Zm-29.927-2.727h27.2v-47.038a11.741,11.741,0,0,0-11.727-11.728h-3.745a11.741,11.741,0,0,0-11.727,11.728Z" transform="translate(-814.681 -1449.456)" fill="#00203f"/>
          </g>
          <rect id="Retângulo_45" data-name="Retângulo 45" width="2.899" height="60.601" transform="translate(23.754 62.856) rotate(180)" fill="#00203f"/>
          <rect id="Retângulo_46" data-name="Retângulo 46" width="2.899" height="31.61" transform="translate(37.689 30.66) rotate(90)" fill="#00203f"/>
          <rect id="Retângulo_47" data-name="Retângulo 47" width="38.811" height="3.273" transform="translate(38.811 64.446) rotate(180)" fill="#00203f"/>
        </g>
        <g id="Grupo_180" data-name="Grupo 180" transform="translate(117.462 112.825)">
          <g id="Grupo_179" data-name="Grupo 179" transform="translate(6.025)">
            <path id="Caminho_311" data-name="Caminho 311" d="M1015.308,1451.914h0a14.963,14.963,0,0,1,14.963,14.963v46.529h-29.926v-46.529A14.963,14.963,0,0,1,1015.308,1451.914Z" transform="translate(-998.982 -1450.55)" fill="#fff"/>
            <path id="Caminho_312" data-name="Caminho 312" d="M1030.541,1513.676H997.888v-49.765a14.471,14.471,0,0,1,14.454-14.455h3.745a14.471,14.471,0,0,1,14.455,14.455Zm-29.926-2.727h27.2v-47.038a11.74,11.74,0,0,0-11.727-11.728h-3.745a11.741,11.741,0,0,0-11.727,11.728Z" transform="translate(-997.888 -1449.456)" fill="#00203f"/>
          </g>
          <rect id="Retângulo_48" data-name="Retângulo 48" width="2.899" height="60.601" transform="translate(23.754 62.856) rotate(180)" fill="#00203f"/>
          <rect id="Retângulo_49" data-name="Retângulo 49" width="2.899" height="31.61" transform="translate(37.689 30.66) rotate(90)" fill="#00203f"/>
          <rect id="Retângulo_50" data-name="Retângulo 50" width="38.811" height="3.273" transform="translate(38.811 64.446) rotate(180)" fill="#00203f"/>
        </g>
        <g id="Grupo_182" data-name="Grupo 182" transform="translate(59.573 114.75)">
          <g id="Grupo_181" data-name="Grupo 181">
            <rect id="Retângulo_51" data-name="Retângulo 51" width="55.551" height="105.772" fill="#00142b"/>
            <rect id="Retângulo_52" data-name="Retângulo 52" width="48.631" height="46.012" transform="translate(2.993 2.712)" fill="#00203f"/>
            <rect id="Retângulo_53" data-name="Retângulo 53" width="48.631" height="46.012" transform="translate(2.993 55.738)" fill="#00203f"/>
          </g>
          <rect id="Retângulo_54" data-name="Retângulo 54" width="31.423" height="36.286" transform="translate(11.409 7.575)" fill="#fff"/>
          <rect id="Retângulo_55" data-name="Retângulo 55" width="37.782" height="2.805" transform="translate(8.23 24.409)" fill="#00203f"/>
          <rect id="Retângulo_56" data-name="Retângulo 56" width="38.951" height="2.806" transform="translate(28.524 5.518) rotate(90)" fill="#00203f"/>
          <path id="Caminho_313" data-name="Caminho 313" d="M970.584,1573.167h-5.4a1.023,1.023,0,0,1-1.023-1.023v-15.5a1.023,1.023,0,0,1,1.023-1.023h5.4v2.046h-4.377v13.455h4.377Z" transform="translate(-918.961 -1498.637)" fill="#89b4fd"/>
        </g>
        <path id="Caminho_314" data-name="Caminho 314" d="M1101.892,1268.935l15.879,15.879H1135v-32.883H1102.64Z" transform="translate(-920.696 -1248.708)" fill="#00203f"/>
        <rect id="Retângulo_57" data-name="Retângulo 57" width="37.408" height="5.892" transform="translate(179.84)" fill="#00142b"/>
      </g>
      <g id="Grupo_184" data-name="Grupo 184" transform="translate(229.652 215.743)">
        <rect id="Retângulo_58" data-name="Retângulo 58" width="3.763" height="105.007" transform="translate(105.007 7.429) rotate(90)" fill="#fff"/>
        <rect id="Retângulo_59" data-name="Retângulo 59" width="3.763" height="105.007" transform="translate(105.007 20.879) rotate(90)" fill="#fff"/>
        <rect id="Retângulo_60" data-name="Retângulo 60" width="3.763" height="45.521" transform="translate(0)" fill="#fff"/>
        <rect id="Retângulo_61" data-name="Retângulo 61" width="3.763" height="45.521" transform="translate(34.28)" fill="#fff"/>
        <rect id="Retângulo_62" data-name="Retângulo 62" width="3.763" height="45.521" transform="translate(66.677)" fill="#fff"/>
        <rect id="Retângulo_63" data-name="Retângulo 63" width="3.763" height="45.521" transform="translate(103.126)" fill="#fff"/>
      </g>
      <g id="Grupo_185" data-name="Grupo 185" transform="translate(317.227 153.846)">
        <path id="Caminho_315" data-name="Caminho 315" d="M1262.421,1665.962s11.368,5.034,13.966,5.683,11.043-.486,6.82-5.683-7.8-2.436-15.428-6.333S1262.421,1665.962,1262.421,1665.962Z" transform="translate(-1207.337 -1554.228)" fill="#00203f"/>
        <path id="Caminho_316" data-name="Caminho 316" d="M1189.791,1619.15s-21.558-4.75-25.821,7.43,16.764,17.881,20.665,18.757,12.87,1.624,14.9,2.273,9.581,1.3,10.637,1.787,11.936,3,11.936,3l8.12-11.124-8.445-7.193-3.6-13.243Z" transform="translate(-1163.402 -1536.198)" fill="#180c7a"/>
        <path id="Caminho_317" data-name="Caminho 317" d="M1209.811,1528.334s17.539-.974,26.065,11.449,15.1,23.628,3.41,34.347-28.014,5.359-28.014,5.359l-21.68,1.34s-22.411-1.583-17.052-22.533S1190.973,1528.822,1209.811,1528.334Z" transform="translate(-1167.102 -1496.172)" fill="#79bf89"/>
        <path id="Caminho_318" data-name="Caminho 318" d="M1202.571,1670.65s-11.368,5.034-13.966,5.684-11.043-.487-6.821-5.684,7.8-2.436,15.428-6.333S1202.571,1670.65,1202.571,1670.65Z" transform="translate(-1171.067 -1556.314)" fill="#00203f"/>
        <path id="Caminho_319" data-name="Caminho 319" d="M1261.99,1588.2a.141.141,0,0,1-.093-.247c9.323-8.234,15.1-7.265,15.343-7.22a.141.141,0,1,1-.052.277c-.056-.009-5.9-.978-15.1,7.153A.141.141,0,0,1,1261.99,1588.2Z" transform="translate(-1207.223 -1519.479)" fill="#00203f"/>
        <path id="Caminho_320" data-name="Caminho 320" d="M1203.657,1587.658a.14.14,0,0,1-.1-.042c-5.869-5.869-14.821-7.859-14.911-7.879a.141.141,0,0,1-.108-.167.143.143,0,0,1,.168-.109c.09.02,9.122,2.026,15.051,7.955a.142.142,0,0,1-.1.241Z" transform="translate(-1174.589 -1518.936)" fill="#00203f"/>
        <path id="Caminho_321" data-name="Caminho 321" d="M1266.305,1570.053a.141.141,0,0,1-.138-.113l-1.462-6.994a.141.141,0,0,1,.277-.058l1.462,6.994a.141.141,0,0,1-.11.167A.115.115,0,0,1,1266.305,1570.053Z" transform="translate(-1208.493 -1511.51)" fill="#00203f"/>
        <path id="Caminho_322" data-name="Caminho 322" d="M1208.213,1572.147h-.012a.141.141,0,0,1-.129-.152l.609-7.552a.144.144,0,0,1,.152-.129.141.141,0,0,1,.129.152l-.609,7.552A.141.141,0,0,1,1208.213,1572.147Z" transform="translate(-1183.285 -1512.195)" fill="#00203f"/>
        <path id="Caminho_323" data-name="Caminho 323" d="M1204.175,1509.093s-1.327-.779-1.7-.015c-.952,1.946,1.336,2.731,2.527,2.572Z" transform="translate(-1180.694 -1487.459)" fill="#e56d5e"/>
        <path id="Caminho_324" data-name="Caminho 324" d="M1229.391,1634.706l-.028,0c-1.045-.209-3.628-1.059-5.907-1.809-1.271-.418-2.368-.78-2.975-.955-1.653-.478-8.612-1.125-8.682-1.131-.145-.028-13.146-2.6-14.593-2.926a.141.141,0,1,1,.062-.276c1.444.321,14.441,2.9,14.573,2.923.273.025,7.041.654,8.72,1.14.612.177,1.712.539,2.985.958,2.159.71,4.846,1.595,5.875,1.8a.141.141,0,0,1-.028.279Z" transform="translate(-1178.4 -1540.367)" fill="#00203f"/>
        <path id="Caminho_325" data-name="Caminho 325" d="M1223.718,1504.238a32.949,32.949,0,0,1-3.382-14.237c-.02-1.674-.151-3.548-.317-5.663a10.452,10.452,0,1,0-19.834,4.964c.059.122.123.241.187.359l-.01,0c1.517,3.1,4.738,14.449,11.554,12.6l.934,4.6a13,13,0,0,0,10.867-2.631Z" transform="translate(-1179.301 -1472.11)" fill="#ffa089"/>
        <path id="Caminho_326" data-name="Caminho 326" d="M1231.887,1485.542l.548,7.43-1.874.494-5.032-7.693Z" transform="translate(-1191.056 -1477.132)" fill="#00203f"/>
        <path id="Caminho_327" data-name="Caminho 327" d="M1233.943,1497.968a1.556,1.556,0,0,1,.407-1.02,2.62,2.62,0,0,1,2.694-1.022c1.717.589.893,4.781-2.143,4.384C1234.9,1500.31,1233.925,1499.975,1233.943,1497.968Z" transform="translate(-1194.801 -1481.708)" fill="#ffa089"/>
        <path id="Caminho_328" data-name="Caminho 328" d="M1217.55,1476.747a1.834,1.834,0,0,0-.868-2.688,1.5,1.5,0,0,1-.416-.164,1.055,1.055,0,0,1-.322-.526l-.463-1.265a.545.545,0,0,0-.579-.461,3.078,3.078,0,0,0-2.124.3,4.553,4.553,0,0,0-2.569-.918c-.294.02-.583.1-.878.1-1.139.018-2.211-1.034-3.288-.665a4.948,4.948,0,0,0-.779.426,12.05,12.05,0,0,1-2.475.746,2.41,2.41,0,0,0-1.827,1.647,1.394,1.394,0,0,1-.133.531.9.9,0,0,1-.423.3,9.041,9.041,0,0,0-2.572,1.25,1.787,1.787,0,0,0-.312,2.527,2.831,2.831,0,0,0-1.4,1.18,1.816,1.816,0,0,0-.025,1.778.753.753,0,0,1,.148.334c.009.226-.22.376-.4.51a2.163,2.163,0,0,0-.481,2.86,2.2,2.2,0,0,1,.362.584,3.249,3.249,0,0,1,.053.6,1.316,1.316,0,0,0,1.072,1.127,2.6,2.6,0,0,0,1.852-.741c.014.259.336.368.6.382a3.558,3.558,0,0,0,3.543-2.69c.925.083,2.073.052,2.5-.772a2.39,2.39,0,0,0,.184-.573q.229-1,.458-2c.286-.052.53.229.614.508a4.482,4.482,0,0,0,.22.843c.334.624,1.224.595,1.922.478a3.447,3.447,0,0,0,1.14-.328,1.17,1.17,0,0,0,.642-.941,1.952,1.952,0,0,0,1.935.6,12,12,0,0,0,4.841-1.738c.56-.327.943-.469,1.042-1.173A2.138,2.138,0,0,0,1217.55,1476.747Z" transform="translate(-1177.479 -1470.385)" fill="#00203f"/>
        <path id="Retângulo_64" data-name="Retângulo 64" d="M4.807,0H36.97a4.807,4.807,0,0,1,4.807,4.807v20.1a4.808,4.808,0,0,1-4.808,4.808H4.807A4.807,4.807,0,0,1,0,24.912V4.807A4.807,4.807,0,0,1,4.807,0Z" transform="translate(21.232 56.522)" fill="#00203f"/>
        <path id="Caminho_329" data-name="Caminho 329" d="M1240.753,1614.964s14.778-8.769,22.736.812-6.171,17.052-9.582,20.138a20.971,20.971,0,0,1-11.53,5.684c-4.223.487-5.521.974-10.393,2.6s-8.932,3.086-9.419,3.41-8.444,3.086-8.444,3.086-8.12-8.12-8.282-10.556c0,0,7.957-7.078,10.231-9.142s13.154-4.662,15.1-7.26S1240.753,1614.964,1240.753,1614.964Z" transform="translate(-1182.291 -1533.108)" fill="#24198e"/>
        <path id="Caminho_330" data-name="Caminho 330" d="M1239.593,1597.888a1.422,1.422,0,1,0-1.422,1.423A1.422,1.422,0,0,0,1239.593,1597.888Z" transform="translate(-1196.05 -1526.507)" fill="#fff"/>
      </g>
      <g id="Grupo_192" data-name="Grupo 192" transform="translate(0 58.184)">
        <g id="Grupo_190" data-name="Grupo 190">
          <path id="Caminho_331" data-name="Caminho 331" d="M619.75,1306.016c-1.015,2.624-.672,5.613-1.626,8.259a13.933,13.933,0,0,1-5.129,6.142c-1.613,1.194-3.414,2.318-4.309,4.113-1.972,3.958,1.394,8.969-.323,13.044-.786,1.865-2.575,3.312-2.819,5.321a4.649,4.649,0,0,0,1.852,4.049,8.526,8.526,0,0,0,4.3,1.607,14.854,14.854,0,0,0,3.952-.045c1.463-.214,2.884-.645,4.338-.917a20.283,20.283,0,0,1,9.155.4c2.27.635,4.479,1.677,6.836,1.7a12.907,12.907,0,0,0,4.494-.938,13.106,13.106,0,0,0,4.385-2.417,12.325,12.325,0,0,0,3.364-6.291c.582-2.342.81-4.76,1.371-7.107a25.738,25.738,0,0,1,3.736-8.464,13.035,13.035,0,0,0,1.95-3.394,7.189,7.189,0,0,0,.221-2.662,11.909,11.909,0,0,0-5.972-9.286,16.637,16.637,0,0,1-2.464-1.426,10.367,10.367,0,0,1-1.876-2.243q-1.56-2.241-3.268-4.373a8.648,8.648,0,0,0-1.995-1.975,7.8,7.8,0,0,0-3.14-.987C631.025,1297.308,622.088,1299.971,619.75,1306.016Z" transform="translate(-597.848 -1297.984)" fill="#080630" style="mix-blend-mode: normal;isolation: isolate"/>
          <g id="Grupo_186" data-name="Grupo 186" transform="translate(43.644 181.085)">
            <path id="Caminho_332" data-name="Caminho 332" d="M678.409,1624.336s-1.173,11.579,1.191,12.891c4.281,2.379,12.177,4.647,11.515,6.69s-19.586,2.122-20.112.26,1.6-7.562-.652-18.657Z" transform="translate(-670.351 -1624.336)" fill="#f8918f"/>
            <path id="Caminho_333" data-name="Caminho 333" d="M671.651,1651.777a16.739,16.739,0,0,0-.189,4.159c.526,1.862,19.451,1.783,20.112-.26.491-1.515-3.689-3.223-7.654-4.923C682.981,1652.328,680.982,1654.783,671.651,1651.777Z" transform="translate(-670.81 -1636.095)" fill="#080630" style="mix-blend-mode: normal;isolation: isolate"/>
          </g>
          <g id="Grupo_187" data-name="Grupo 187" transform="translate(5.519 180.549)">
            <path id="Caminho_334" data-name="Caminho 334" d="M612.327,1623.574s-3.127,11.209-1.022,12.906c3.813,3.072,11.208,6.652,10.209,8.553s-19.662-1.244-19.863-3.169,2.86-7.18,2.534-18.5Z" transform="translate(-601.642 -1623.369)" fill="#f8918f"/>
            <path id="Caminho_335" data-name="Caminho 335" d="M602.547,1649.374a16.728,16.728,0,0,0-.894,4.066c.2,1.925,18.863,5.069,19.863,3.168.741-1.409-3.086-3.8-6.705-6.155C613.618,1651.845,611.23,1653.924,602.547,1649.374Z" transform="translate(-601.643 -1634.944)" fill="#080630" style="mix-blend-mode: normal;isolation: isolate"/>
          </g>
          <path id="Caminho_336" data-name="Caminho 336" d="M691.133,1378.11s3.976,5.324,7.288,5.324S713,1369.354,713,1369.354l2.65,4.266s-9.442,20.582-18.056,20.748-15.074-9.442-14.909-9.94,5.633-6.318,5.633-6.318Z" transform="translate(-632.196 -1329.753)" fill="#f8918f"/>
          <path id="Caminho_337" data-name="Caminho 337" d="M646.744,1439.362a46.538,46.538,0,0,1,7.46,13.516c2.319,7.289-3.833,93.645-3.833,93.645H640.1s-5.448-76.9-5.448-77.587c0-2.686-20.225,77.587-20.225,77.587H604.172s5.549-93.992,18.429-107.161l12.051.745Z" transform="translate(-597.249 -1360.915)" fill="#79bf89"/>
          <path id="Caminho_338" data-name="Caminho 338" d="M661.495,1432.743v3.231s-6.129,5.963-24.143,0l-.042-3.231,15.82-.994Z" transform="translate(-612 -1357.526)" fill="#060633"/>
          <path id="Caminho_339" data-name="Caminho 339" d="M640.62,1361.627s6.384-.236,9.624,2c2.318,1.6,7.433,10.622,7.433,10.622l-5.873,4.992a7.265,7.265,0,0,1-4.068,8.176l-.991,13.17s-10.27,5.963-24.185,0c0,0-2.651-24.682-5.135-22.529a32.689,32.689,0,0,0-3.975,4.059l-9.277-9.194s10.113-10.131,13.459-11.719a16.182,16.182,0,0,1,14.2-.141Z" transform="translate(-597.249 -1325.371)" fill="#fff"/>
          <path id="Caminho_340" data-name="Caminho 340" d="M607.027,1392.663s-5.385,6.286-4.764,8.025,10.129,16.062,11.4,18.777a7.32,7.32,0,0,1,.9,4.331l-4.846,2.36s-.251-3.834-1.306-4.96-17.081-17.651-16.708-22.869,7.728-13.193,7.728-13.193Z" transform="translate(-591.696 -1336.777)" fill="#f8918f"/>
          <g id="Grupo_188" data-name="Grupo 188" transform="translate(23.202 1.036)">
            <path id="Caminho_341" data-name="Caminho 341" d="M674.909,1326.091s.7-1.378,1.432-.933c1.861,1.134.213,3.109-.883,3.619Z" transform="translate(-651.939 -1311.076)" fill="#f8918f"/>
            <path id="Caminho_342" data-name="Caminho 342" d="M645.389,1300.968a10.511,10.511,0,0,0-7.161,15.685,45.4,45.4,0,0,0,5.106,8.231,10.462,10.462,0,0,1,2.66,7.184l-.075,2.675c6.424,2.344,8.933.731,8.933.731l-.893-7.807h0c6.483-1.535,4.222-13.564,3.811-17.149l-.01,0c-.011-.135-.021-.27-.036-.406A10.514,10.514,0,0,0,645.389,1300.968Z" transform="translate(-634.961 -1300.272)" fill="#f8918f"/>
            <path id="Caminho_343" data-name="Caminho 343" d="M644.324,1311.2a43.679,43.679,0,0,0-4.386,7.371c-.121.29-.961,2.466-.624,2.666a13.555,13.555,0,0,1-4.28-4.71,10.953,10.953,0,0,1,7.733-16.42c3.759-.743,8.045.058,10.727,2.96,2.517,2.724,3.046,6.472,3.7,9.97-.733-3.926-6.392-6.27-9.741-7.3.1.03-1.982,3.69-2.094,3.871C645.024,1310.145,644.677,1310.675,644.324,1311.2Z" transform="translate(-633.512 -1299.851)" fill="#080630" style="mix-blend-mode: normal;isolation: isolate"/>
            <path id="Caminho_344" data-name="Caminho 344" d="M642.549,1333.348a1.561,1.561,0,0,0-.9-.644,2.635,2.635,0,0,0-2.837.594c-1.136,1.429,1.833,4.536,4.191,2.553C643.005,1335.85,643.651,1335.039,642.549,1333.348Z" transform="translate(-635.761 -1314.402)" fill="#f8918f"/>
          </g>
          <g id="Grupo_189" data-name="Grupo 189" transform="translate(15.386 79.867)">
            <path id="Caminho_345" data-name="Caminho 345" d="M624.242,1441.92s4.207,5.9,3.779,7.274-2.231,5.232-2.37,5.912-.054,4.334-.427,4.9-1.267-3.921-1.267-3.921.226,3.937-.46,4.183-1.295-3.953-1.295-3.953.356,3.981-.315,4-1.071-3.841-1.071-3.841.234,3.1-.3,3.1-1.719-5.058-.676-6.838c2.465-4.205,1.742-6.456,1.742-6.456Z" transform="translate(-619.425 -1441.92)" fill="#f8918f"/>
            <path id="Caminho_346" data-name="Caminho 346" d="M632.8,1449.586s2.09,3.508,2.116,4.845.411,4.049-.163,4.042-1.354-3.763-1.767-3.922-.421-1.858-.421-1.858Z" transform="translate(-625.273 -1445.332)" fill="#f8918f"/>
          </g>
          <path id="Caminho_347" data-name="Caminho 347" d="M647.065,1402.571c-4.659,0-6.6-4.658-6.62-4.7a.172.172,0,0,1,.32-.129c.018.044,1.877,4.489,6.3,4.489a6.927,6.927,0,0,0,6.166-3.261.173.173,0,1,1,.307.158A7.29,7.29,0,0,1,647.065,1402.571Z" transform="translate(-613.39 -1342.338)" fill="#060633"/>
          <path id="Caminho_348" data-name="Caminho 348" d="M687.578,1390.682a.173.173,0,0,1-.171-.152,9.876,9.876,0,0,0-2.811-5.408.173.173,0,1,1,.236-.251,10.052,10.052,0,0,1,2.918,5.618.172.172,0,0,1-.151.192Z" transform="translate(-633.024 -1336.639)" fill="#060633"/>
          <path id="Caminho_349" data-name="Caminho 349" d="M663.137,1441.673a3.039,3.039,0,1,1,3.039-3.039A3.043,3.043,0,0,1,663.137,1441.673Zm0-4.7a1.659,1.659,0,1,0,1.658,1.659A1.661,1.661,0,0,0,663.137,1436.976Z" transform="translate(-622.143 -1359.238)" fill="#bbcff8"/>
        </g>
        <g id="Grupo_191" data-name="Grupo 191" transform="translate(75.7 28.709)">
          <path id="Caminho_350" data-name="Caminho 350" d="M731.176,1371.632s1.625-3.72,3.731-5.165a4.4,4.4,0,0,1,3.731-.873l2.284-1.424s1.326,7.241-4.172,10.5C736.292,1374.943,731.176,1371.632,731.176,1371.632Z" transform="translate(-729.481 -1356.154)" fill="#f8918f"/>
          <path id="Caminho_351" data-name="Caminho 351" d="M733.016,1349.73l8.034,2.324a.151.151,0,0,1,.1.187l-4.7,16.254a.15.15,0,0,1-.187.1l-8.034-2.323a.152.152,0,0,1-.1-.188l4.7-16.254A.151.151,0,0,1,733.016,1349.73Z" transform="translate(-728.122 -1349.724)" fill="#050521"/>
          <path id="Caminho_352" data-name="Caminho 352" d="M748.324,1364.548a1,1,0,0,0,.733-1.687l-1.685-1.806a1,1,0,0,0-1.467,1.369l1.685,1.805A1,1,0,0,0,748.324,1364.548Z" transform="translate(-735.918 -1354.626)" fill="#f8918f"/>
          <path id="Caminho_353" data-name="Caminho 353" d="M747.173,1367.548a1,1,0,0,0,.733-1.687l-1.685-1.8a1,1,0,0,0-1.467,1.369l1.685,1.8A1,1,0,0,0,747.173,1367.548Z" transform="translate(-735.406 -1355.962)" fill="#f8918f"/>
          <path id="Caminho_354" data-name="Caminho 354" d="M745.956,1370.314a1,1,0,0,0,.733-1.687L745,1366.821a1,1,0,0,0-1.466,1.369l1.685,1.805A1,1,0,0,0,745.956,1370.314Z" transform="translate(-734.864 -1357.193)" fill="#f8918f"/>
          <path id="Caminho_355" data-name="Caminho 355" d="M744.431,1372.652a.668.668,0,0,0,.51-1.1l-1.536-1.816a.669.669,0,1,0-1.021.863l1.536,1.817A.667.667,0,0,0,744.431,1372.652Z" transform="translate(-734.4 -1358.526)" fill="#f8918f"/>
        </g>
      </g>
    </g>
  </g>
</svg>
