<svg id="Group_1" data-name="Group 1" xmlns="http://www.w3.org/2000/svg" width="217.959" height="103.072" viewBox="0 0 217.959 103.072">
  <path id="Path_32" data-name="Path 32" d="M-141.618,495.825a77.526,77.526,0,0,1,12.493,1.041l1.093-9.5a63.006,63.006,0,0,0-15.851-1.848c-20.12,0-25.117,9.4-25.117,30.948,0,21.525,4.971,30.947,25.117,30.947a63.322,63.322,0,0,0,15.851-1.822l-1.119-9.526a76.988,76.988,0,0,1-12.468,1.041c-14.628,0-14.836-8.667-14.836-20.64,0-11.921.261-20.641,14.836-20.641" transform="translate(169 -485.518)" fill="#070c35" style="mix-blend-mode: normal;isolation: isolate"/>
  <path id="Path_33" data-name="Path 33" d="M42.316,493.977c-1.952-5.778-5.362-8.46-9.89-8.46-4.659,0-7.939,2.525-9.969,8.46L4.419,546.789h12.7L31.9,497.8l7.031,22.853H51.27Z" transform="translate(43.564 -485.518)" fill="#070c35" style="mix-blend-mode: normal;isolation: isolate"/>
  <path id="Path_34" data-name="Path 34" d="M248.288,485.518c-18.871,0-24.258,8.98-24.258,30.948s5.388,30.947,24.258,30.947c18.845,0,24.232-8.979,24.232-30.947s-5.388-30.948-24.232-30.948m0,51.745c-11.5,0-11.765-8.433-11.765-20.8s.26-20.823,11.765-20.823c11.479,0,11.739,8.459,11.739,20.823s-.26,20.8-11.739,20.8" transform="translate(-115.284 -485.518)" fill="#070c35" style="mix-blend-mode: normal;isolation: isolate"/>
  <path id="Path_35" data-name="Path 35" d="M455.576,493.977c-1.952-5.778-5.362-8.46-9.891-8.46-4.659,0-7.939,2.525-9.969,8.46l-18.038,52.811h12.7L445.165,497.8l7.031,22.853H464.53Z" transform="translate(-255.353 -485.518)" fill="#070c35" style="mix-blend-mode: normal;isolation: isolate"/>
  <path id="Path_36" data-name="Path 36" d="M143.7,659.739l4.02,13.066h13.067L156.4,659.739Z" transform="translate(-57.177 -611.534)" fill="#73be8e" style="mix-blend-mode: normal;isolation: isolate"/>
  <path id="Path_37" data-name="Path 37" d="M556.957,659.739l4.019,13.066h13.067l-4.386-13.066Z" transform="translate(-356.095 -611.534)" fill="#73be8e" style="mix-blend-mode: normal;isolation: isolate"/>
  <path id="Path_38" data-name="Path 38" d="M22.462,806.024a23.536,23.536,0,0,1-5.015.56c-6.457,0-7.651-4.542-7.651-10.052,0-6.273,1.421-9.631,8.34-9.631a16.3,16.3,0,0,1,4.294.549l-.216,2a20.328,20.328,0,0,0-3.2-.323c-5.994,0-6.575,2.1-6.575,7.4,0,4.983.441,7.792,6.543,7.792a17.8,17.8,0,0,0,3.228-.409Z" transform="translate(39.674 -703.512)" fill="#73be8e" style="mix-blend-mode: normal;isolation: isolate"/>
  <path id="Path_39" data-name="Path 39" d="M67.2,796.735c0-7.167,2.238-9.836,8.416-9.836s8.415,2.766,8.415,9.836c0,7.038-2.227,9.847-8.415,9.847s-8.416-2.669-8.416-9.847m14.205,0c0-5.822-1.377-7.63-5.79-7.63-4.315,0-5.779,1.549-5.779,7.63s1.463,7.641,5.779,7.641c4.38,0,5.79-1.808,5.79-7.641" transform="translate(-1.85 -703.511)" fill="#73be8e" style="mix-blend-mode: normal;isolation: isolate"/>
  <path id="Path_40" data-name="Path 40" d="M148.957,806.324h-2.6v-14.55c0-1.119.032-2.217.1-3.271a22.231,22.231,0,0,1,8.652-1.6c6.532,0,7.2,3.089,7.2,6.974v12.451h-2.615V794.346c0-3.616-.646-5.252-5.456-5.252a15.581,15.581,0,0,0-5.2.936c-.054.9-.075,2.1-.075,3Z" transform="translate(-59.099 -703.511)" fill="#73be8e" style="mix-blend-mode: normal;isolation: isolate"/>
  <path id="Path_41" data-name="Path 41" d="M223.5,791.786c0,2.562,1.969,2.842,4.724,3.692,3.853,1.194,6.027,2.174,6.027,5.714,0,4.229-3.143,5.391-7.318,5.391a28.488,28.488,0,0,1-6.1-.635l.258-2.056a31.559,31.559,0,0,0,4.929.452c2.249,0,5.563,0,5.563-3,0-2.432-1.7-2.863-4.692-3.756-3.013-.9-6.005-1.614-6.005-5.553,0-4,2.765-5.133,6.629-5.133a28.928,28.928,0,0,1,6.241.635l-.258,2.023a27.966,27.966,0,0,0-4.8-.463c-2.195,0-5.2.054-5.2,2.69" transform="translate(-112.971 -703.512)" fill="#73be8e" style="mix-blend-mode: normal;isolation: isolate"/>
  <path id="Path_42" data-name="Path 42" d="M283.527,776.479c0-7.167,2.228-9.836,8.416-9.836s8.416,2.766,8.416,9.836c0,7.038-2.238,9.847-8.416,9.847s-8.416-2.669-8.416-9.847m14.206,0c0-5.822-1.377-7.63-5.79-7.63-4.326,0-5.779,1.549-5.779,7.63s1.453,7.641,5.779,7.641c4.38,0,5.79-1.808,5.79-7.641m-4.369-17.585h3.153l-4.2,5.144H290.2Z" transform="translate(-158.319 -683.255)" fill="#73be8e" style="mix-blend-mode: normal;isolation: isolate"/>
  <path id="Path_43" data-name="Path 43" d="M362.637,806.324V791.71c0-1.119.032-2.217.108-3.272a15.923,15.923,0,0,1,7.189-1.539,15.677,15.677,0,0,1,1.786.086L371.5,789.2a14.034,14.034,0,0,0-1.571-.075,12.1,12.1,0,0,0-4.617.872c-.054.9-.076,2.109-.076,3.013v13.312Z" transform="translate(-215.54 -703.511)" fill="#73be8e" style="mix-blend-mode: normal;isolation: isolate"/>
  <path id="Path_44" data-name="Path 44" d="M418.746,806.024a23.536,23.536,0,0,1-5.015.56c-6.457,0-7.652-4.542-7.652-10.052,0-6.273,1.421-9.631,8.34-9.631a16.3,16.3,0,0,1,4.294.549l-.215,2a20.327,20.327,0,0,0-3.2-.323c-5.994,0-6.575,2.1-6.575,7.4,0,4.983.441,7.792,6.543,7.792a17.807,17.807,0,0,0,3.229-.409Z" transform="translate(-246.963 -703.512)" fill="#73be8e" style="mix-blend-mode: normal;isolation: isolate"/>
  <path id="Path_45" data-name="Path 45" d="M466.131,762.055c0-1.41.355-1.915,1.571-1.915s1.582.506,1.582,1.915-.334,1.894-1.582,1.894-1.571-.485-1.571-1.894m.269,5.747h2.615v19.166H466.4Z" transform="translate(-290.399 -684.156)" fill="#73be8e" style="mix-blend-mode: normal;isolation: isolate"/>
  <path id="Path_46" data-name="Path 46" d="M494.521,796.735c0-7.167,2.238-9.836,8.416-9.836s8.416,2.766,8.416,9.836c0,7.038-2.228,9.847-8.416,9.847s-8.416-2.669-8.416-9.847m14.205,0c0-5.822-1.377-7.63-5.79-7.63-4.315,0-5.779,1.549-5.779,7.63s1.464,7.641,5.779,7.641c4.38,0,5.79-1.808,5.79-7.641" transform="translate(-310.934 -703.511)" fill="#73be8e" style="mix-blend-mode: normal;isolation: isolate"/>
  <path id="Path_47" data-name="Path 47" d="M572.916,791.786c0,2.562,1.969,2.842,4.724,3.692,3.853,1.194,6.027,2.174,6.027,5.714,0,4.229-3.142,5.391-7.318,5.391a28.488,28.488,0,0,1-6.1-.635l.258-2.056a31.568,31.568,0,0,0,4.929.452c2.249,0,5.564,0,5.564-3,0-2.432-1.7-2.863-4.692-3.756-3.013-.9-6-1.614-6-5.553,0-4,2.766-5.133,6.629-5.133a28.919,28.919,0,0,1,6.241.635l-.258,2.023a27.95,27.95,0,0,0-4.8-.463c-2.2,0-5.2.054-5.2,2.69" transform="translate(-365.708 -703.512)" fill="#73be8e" style="mix-blend-mode: normal;isolation: isolate"/>
</svg>
